<svg width="20" height="20" viewBox="0 0 20 20" fill="none" xmlns="http://www.w3.org/2000/svg">
<path d="M10.1284 0.0139777C12.7712 -0.126078 15.1998 0.546191 17.1998 2.39493C21.3855 6.27448 20.8141 12.9271 15.9712 15.9944C14.7427 16.7647 13.7427 17.7171 12.7427 18.7115C12.4141 19.0476 12.0855 19.3837 11.7427 19.7059C11.4427 19.972 11.1141 20.098 10.6998 19.9159C10.2998 19.7339 10.1427 19.4257 10.0855 19.0336C10.0141 18.5294 10.3141 17.8711 9.92838 17.577C9.61409 17.3389 8.97124 17.521 8.47124 17.479C4.14266 17.1288 1.02838 14.4117 0.156949 10.2101C-0.800194 5.58821 2.85695 0.658235 7.64266 0.112017C8.44266 0.0279833 9.24266 -0.0140335 10.1284 0.0139777ZM11.7855 17.4089C12.8141 16.4566 13.6712 15.4902 14.8569 14.8179C17.3998 13.3893 18.7569 10.4762 18.3427 7.74507C17.8712 4.77588 15.6855 2.47896 12.6855 1.77868C11.3855 1.47056 10.0855 1.5686 8.78552 1.59661C5.71409 1.66664 3.08552 3.55739 2.05695 6.37252C1.04266 9.14563 1.88552 12.1989 4.19981 14.1736C5.88552 15.6162 7.89981 15.9804 10.0427 15.9103C11.2855 15.8823 11.5427 16.1204 11.7855 17.4089Z" fill="black"/>
<path d="M10.8143 9.52377C10.8143 10.154 10.8143 10.7843 10.8143 11.4145C10.8143 11.7787 10.8 12.0448 11.2857 12.1848C11.7429 12.3249 11.4857 12.8291 11.5 13.1652C11.5143 13.5014 11.2143 13.4733 10.9715 13.4733C10.4286 13.4733 9.88574 13.5014 9.3286 13.4733C9.04289 13.4593 8.55717 13.6554 8.54289 13.1652C8.5286 12.8011 8.2286 12.2409 8.95717 12.1008C9.18574 12.0588 9.21432 11.8627 9.21432 11.6666C9.21432 10.7142 9.21432 9.76186 9.21432 8.80948C9.21432 8.61341 9.20003 8.41733 8.98574 8.33329C8.40003 8.0952 8.64289 7.605 8.70003 7.24086C8.75717 6.87671 9.17146 7.03077 9.4286 7.01677C10.8143 7.00276 10.8143 7.00276 10.8143 8.3473C10.8143 8.72545 10.8143 9.13161 10.8143 9.52377Z" fill="black"/>
<path d="M9.84272 4.21568C10.3999 4.2717 10.8284 4.7759 10.7999 5.33613C10.757 5.88234 10.2427 6.34453 9.69986 6.30251C9.11415 6.2605 8.62844 5.70027 8.69986 5.15405C8.77129 4.60783 9.31415 4.15966 9.84272 4.21568Z" fill="black"/>
</svg>
