<svg width="37" height="30" viewBox="0 0 37 30" fill="none" xmlns="http://www.w3.org/2000/svg">
<path d="M16.7058 28.2387C17.053 28.5158 17.4195 28.7928 17.7668 29.0897C17.9983 29.2875 18.1719 29.5646 17.8439 29.8416C17.5739 30.0791 17.3038 30 17.0723 29.7625C16.9759 29.6833 16.8601 29.5844 16.8022 29.4854C15.8763 28.0804 14.5645 27.744 12.9633 27.9023C11.5937 28.0211 10.2047 27.9815 8.81579 27.9023C8.00557 27.8627 7.38826 28.0804 6.8867 28.7335C6.57804 29.149 6.17293 29.5052 5.78711 29.8416C5.57491 30.0197 5.32413 30.0593 5.09264 29.8218C4.84186 29.5646 4.9576 29.3469 5.15051 29.149C5.47846 28.7928 5.80641 28.4366 6.19222 28.0211C5.49775 27.9023 4.89973 27.8627 4.321 27.7044C2.54624 27.1899 1.38878 25.5277 1.29233 23.4498C1.27304 22.8562 1.27304 22.2625 1.29233 21.6688C1.31162 20.8179 1.36949 20.0857 0.482109 19.4525C-0.308819 18.8786 -0.0966189 17.335 0.790764 16.8205C1.38878 16.4841 1.46595 16.0686 1.44666 15.4749C1.42736 12.9617 1.42736 10.4683 1.44666 7.9551C1.46595 4.49204 4.57179 2.29547 7.71621 3.54217C8.10203 3.70048 8.42997 3.70048 8.81579 3.62132C9.95395 3.42343 10.8992 3.74006 11.6323 4.70971C11.9602 5.14507 11.9023 5.48148 11.4394 5.75853C10.2433 6.47093 9.04728 7.16354 7.85124 7.87594C7.11819 8.3113 6.80953 7.81657 6.69379 7.2427C6.52017 6.47093 6.52017 5.65958 6.98315 4.94718C7.33039 4.43267 7.11819 4.29415 6.63592 4.21499C4.39817 3.85879 2.44978 5.50127 2.43049 7.83636C2.4112 10.3693 2.44978 12.9221 2.4112 15.4551C2.39191 16.2664 2.58482 16.5039 3.41433 16.5039C9.16303 16.4643 14.9117 16.5039 20.6797 16.4643C21.6057 16.4643 22.4738 16.5831 22.8017 17.5923C23.1297 18.5422 22.9368 19.4129 21.9529 19.9274C21.625 20.1055 21.6828 20.4221 21.6828 20.7189C21.6828 21.6094 21.7021 22.5 21.6828 23.3905C21.625 25.8839 20.101 27.5857 17.6896 27.9023C17.4388 27.9419 17.1881 27.9419 16.9373 27.9617C16.8408 28.0408 16.7637 28.1398 16.7058 28.2387ZM11.5744 20.0659C8.77721 20.0659 5.98002 20.1055 3.20213 20.0461C2.4112 20.0263 2.199 20.3034 2.25687 21.0554C2.31475 21.8469 2.23758 22.6385 2.27617 23.43C2.35333 25.4881 3.72299 26.9129 5.70995 26.9129C9.56814 26.9525 13.407 26.9525 17.2652 26.9129C19.2908 26.8931 20.6604 25.4089 20.699 23.3113C20.7183 22.5197 20.6604 21.7282 20.7183 20.9366C20.7569 20.244 20.5447 20.0263 19.8695 20.0263C17.0916 20.0857 14.333 20.0659 11.5744 20.0659ZM11.3622 19.0963C14.468 19.0963 17.5932 19.0963 20.699 19.0963C21.297 19.0963 21.9336 19.1358 21.9143 18.2453C21.895 17.434 21.297 17.4538 20.7376 17.4538C14.5838 17.4538 8.41068 17.4538 2.25687 17.4538C1.65886 17.4538 1.02225 17.4142 1.04155 18.3047C1.06084 19.116 1.65886 19.0765 2.21829 19.0765C5.26626 19.0963 8.31423 19.0963 11.3622 19.0963ZM10.6484 5.06591C9.81892 4.47225 9.10515 4.3733 8.39139 4.82845C7.71621 5.24401 7.42684 5.89705 7.63904 6.84692C8.64217 6.25325 9.56814 5.71895 10.6484 5.06591Z" fill="#67666B"/>
<path d="M27.2774 26.4577C27.2774 25.5672 27.2581 24.6767 27.2774 23.7862C27.2967 23.2915 27.1231 23.1134 26.6408 23.0145C24.6346 22.5989 23.9015 21.6886 23.8629 19.6306C23.8437 18.839 23.8629 18.0475 23.8629 17.2559C23.8629 16.682 24.0944 16.4446 24.6732 16.4446C25.792 16.4841 26.9302 16.4643 28.0491 16.4446C28.242 16.4446 28.5506 16.5633 28.5892 16.2071C28.6278 15.8707 28.3384 15.8905 28.1262 15.8905C27.779 15.8707 27.4511 15.8311 27.4703 15.376C27.4896 14.9802 27.7983 14.901 28.0877 14.9208C28.6278 14.9604 28.6278 14.624 28.6085 14.2282C28.5892 13.9314 28.5892 13.6345 28.6085 13.3377C28.6857 12.2691 29.4959 11.3984 30.499 11.3192C31.5793 11.2401 32.5246 11.9525 32.7754 13.0211C32.8525 13.3971 32.8718 13.773 32.4281 13.8918C32.0037 13.9907 31.9266 13.6543 31.8494 13.2981C31.6951 12.5857 31.2321 12.2097 30.5183 12.3285C29.8431 12.4472 29.5538 12.9023 29.5923 13.5949C29.6502 14.5052 29.2258 15.6728 29.7467 16.2665C30.2482 16.8205 31.3864 16.4248 32.2352 16.4446C33.4891 16.4841 34.743 16.4841 35.9969 16.4446C36.6914 16.4248 37.0001 16.6227 36.9615 17.3944C36.9229 18.2058 36.9615 19.0369 36.9422 19.868C36.9036 21.6688 36.0934 22.6979 34.3572 22.9947C33.7206 23.0936 33.5856 23.3509 33.6049 23.9446C33.6434 25.6266 33.6049 27.3087 33.6242 28.9907C33.6434 29.6833 33.4505 30.0198 32.6982 30C31.1549 29.9604 29.6116 29.9802 28.0684 30C27.4511 30 27.2003 29.7625 27.2389 29.1292C27.316 28.2387 27.2774 27.3482 27.2774 26.4577ZM30.4797 19.0567C29.0329 19.0567 27.5861 19.0567 26.1586 19.0567C24.7889 19.0567 24.4803 19.5514 25.059 20.8773C25.3483 21.5303 25.8885 21.9063 26.5444 22.0052C29.1294 22.3219 31.7144 22.3812 34.2993 22.025C35.534 21.8469 36.0548 21.0356 36.0548 19.7295C36.0548 19.215 35.9005 19.0567 35.3989 19.0567C33.7399 19.0765 32.1195 19.0567 30.4797 19.0567ZM28.2613 26.0818C28.2613 26.8337 28.2806 27.5857 28.2613 28.3575C28.242 28.872 28.4349 29.0501 28.9172 29.0303C29.9396 29.0105 30.962 28.9907 31.9844 29.0303C32.5439 29.0501 32.6982 28.8324 32.6982 28.2981C32.6596 26.9129 32.6596 25.5277 32.6982 24.1622C32.7175 23.4696 32.5824 23.1926 31.8301 23.1926C31.0778 23.1926 30.8848 23.4498 30.962 24.1424C31.0006 24.5382 30.9813 24.934 30.962 25.3298C30.962 25.686 30.8656 26.0026 30.4412 25.9828C30.0746 25.963 29.9975 25.6662 29.9975 25.3496C29.9975 24.8153 29.9975 24.3008 29.9975 23.7665C29.9975 23.5488 30.036 23.3311 29.7274 23.2124C28.84 22.8957 28.2613 23.2717 28.2613 24.2018C28.2613 24.8351 28.2613 25.4683 28.2613 26.0818ZM30.3833 18.0475C32.0423 18.0475 33.7206 18.0475 35.3796 18.0475C35.6111 18.0475 35.9584 18.186 35.9969 17.7902C36.0355 17.3548 35.669 17.4736 35.4375 17.4736C32.1002 17.4736 28.7628 17.4736 25.4448 17.4736C25.2326 17.4736 24.8468 17.3351 24.8854 17.7704C24.9047 18.1662 25.2712 18.0475 25.5027 18.0475C27.1038 18.0672 28.7435 18.0475 30.3833 18.0475Z" fill="#67666B"/>
<path d="M25.9463 5.28364C25.9463 3.79947 25.9656 2.3153 25.9463 0.831134C25.927 0.237467 26.1585 0 26.7372 0C29.245 0.0197889 31.7529 0.0197889 34.2414 0C34.8394 0 35.013 0.316623 35.013 0.870712C35.013 3.85884 35.013 6.86675 35.013 9.85488C35.013 10.4683 34.7815 10.7454 34.1642 10.7454C31.695 10.7256 29.2258 10.7256 26.7565 10.7454C26.1778 10.7454 25.9656 10.5079 25.9656 9.91425C25.9656 8.37071 25.9463 6.82718 25.9463 5.28364ZM26.9108 5.30343C26.9108 6.55013 26.9301 7.81662 26.9108 9.06332C26.9108 9.53826 26.988 9.77573 27.5282 9.75594C29.4958 9.73615 31.4442 9.73615 33.4119 9.75594C33.952 9.75594 34.0485 9.51847 34.0485 9.04354C34.0292 6.6095 34.0292 4.17546 34.0485 1.72164C34.0485 1.18734 33.9327 0.949868 33.354 0.949868C31.4249 0.969657 29.4958 0.969657 27.5667 0.949868C27.0652 0.949868 26.8916 1.10818 26.9108 1.62269C26.9301 2.86939 26.9108 4.07652 26.9108 5.30343Z" fill="#67666B"/>
<path d="M13.9667 9.06337C14.0246 9.47893 13.8124 9.69661 13.5423 9.65703C12.9829 9.55809 12.8285 9.02379 12.6935 8.56864C12.6163 8.27181 12.9057 8.03434 13.1565 8.05413C13.7545 8.13329 13.7931 8.72695 13.9667 9.06337Z" fill="#67666B"/>
<path d="M11.5939 6.58961C11.999 6.74792 12.1919 7.20307 12.2691 7.678C12.3077 7.97484 12.134 8.23209 11.8254 8.15294C11.2852 8.0342 11.1309 7.51969 11.0345 7.06455C10.9766 6.76771 11.1695 6.55003 11.5939 6.58961Z" fill="#67666B"/>
<path d="M11.9219 8.82593C12.3656 9.06339 12.5778 9.47896 12.655 9.97369C12.6935 10.3101 12.462 10.508 12.192 10.4288C11.6518 10.2903 11.4782 9.79558 11.401 9.32065C11.3432 9.02382 11.5939 8.86551 11.9219 8.82593Z" fill="#67666B"/>
<path d="M9.66482 9.16233C9.64552 9.51853 9.51049 9.77578 9.20183 9.7362C8.66169 9.63726 8.48807 9.14254 8.39161 8.6676C8.33374 8.37077 8.52665 8.15309 8.81602 8.17288C9.43332 8.21246 9.41403 8.82591 9.66482 9.16233Z" fill="#67666B"/>
<path d="M10.8415 11.2402C10.3592 11.0423 10.147 10.607 10.0892 10.1122C10.0506 9.8154 10.3014 9.55814 10.5521 9.6373C11.0537 9.79561 11.2466 10.2508 11.3045 10.7653C11.3624 11.0819 11.1309 11.2006 10.8415 11.2402Z" fill="#67666B"/>
<path d="M10.938 8.33116C10.9573 8.68736 10.8608 8.9644 10.5521 8.92483C9.97342 8.84567 9.81909 8.33116 9.72264 7.85622C9.66476 7.55939 9.85767 7.32192 10.1663 7.3615C10.7258 7.44066 10.7451 7.99475 10.938 8.33116Z" fill="#67666B"/>
</svg>
