<svg width="34" height="30" viewBox="0 0 34 30" fill="none" xmlns="http://www.w3.org/2000/svg">
<path d="M19.8111 26.8775C16.2994 26.8775 12.7699 26.8952 9.25819 26.8597C8.56649 26.8597 8.28271 27.0371 8.37139 27.7468C8.40686 28.0306 8.38913 28.3322 8.37139 28.6338C8.33592 29.1838 8.58423 29.8757 7.60874 29.9112C6.4559 29.9466 5.71099 29.5741 5.69325 28.687C5.64004 26.2033 5.65778 23.7196 5.69325 21.2358C5.71099 20.4907 6.18986 19.9585 6.8993 19.7456C7.39591 19.6037 7.44912 19.3375 7.44912 18.9118C7.43138 17.2618 7.44912 15.5942 7.43138 13.9443C7.43138 13.3766 7.55553 13.1105 8.19403 13.0395C9.54197 12.8798 10.4642 11.9395 10.6239 10.609C10.6948 10.0413 10.8899 9.82837 11.4397 9.82837C17.0266 9.84611 22.6134 9.82837 28.2003 9.82837C28.7146 9.82837 28.892 10.0235 28.9807 10.538C29.1758 11.9573 30.0448 12.8443 31.4637 13.0217C32.049 13.0927 32.2086 13.3411 32.1909 13.8733C32.1732 15.5232 32.2086 17.1909 32.1732 18.8408C32.1732 19.3021 32.2441 19.5859 32.7585 19.7456C33.5034 19.9762 33.929 20.5617 33.9468 21.3423C33.9822 23.7373 34 26.1323 33.9645 28.5274C33.9468 29.5918 32.4747 30.3192 31.5524 29.8047C31.3573 29.6983 31.2509 29.5386 31.2509 29.308C31.2509 29.1306 31.2509 28.9531 31.2509 28.7757C31.2509 26.8775 31.2509 26.8775 29.3886 26.8775C26.1961 26.8775 23.0036 26.8775 19.8111 26.8775ZM19.7402 23.7728C23.6067 23.7728 27.4731 23.7728 31.3396 23.7728C33.06 23.7728 33.06 23.7728 33.06 22.0696C33.06 20.7391 32.8471 20.5262 31.5169 20.5262C24.0146 20.5262 16.5122 20.5262 9.00989 20.5262C6.54458 20.5262 6.58005 20.5262 6.56232 22.9567C6.56232 23.6486 6.77515 23.7905 7.41365 23.7728C11.5284 23.7728 15.6432 23.7728 19.7402 23.7728ZM19.8289 13.3943C17.9311 13.3943 16.0511 13.3943 14.1533 13.3943C13.8518 13.3943 13.4971 13.3056 13.2665 13.6427C12.7522 14.441 12.0605 15.0797 11.2978 15.6474C10.7126 16.0732 10.9963 16.7474 11.0673 17.2973C11.1205 17.7586 11.6526 17.528 11.9718 17.5457C13.1779 17.5812 14.4016 17.5457 15.6077 17.5634C16.6719 17.5812 17.1862 18.0424 17.2572 19.1069C17.2926 19.5859 17.4877 19.6214 17.8602 19.6214C19.1904 19.6036 20.5206 19.6036 21.8508 19.6214C22.2232 19.6214 22.4183 19.5859 22.4361 19.1069C22.4893 18.0602 23.0214 17.5812 24.0855 17.5634C25.2029 17.5457 26.338 17.5634 27.4554 17.5634C28.6792 17.5634 28.9097 17.2796 28.6614 16.0555C28.5905 15.7361 28.3599 15.6297 28.1648 15.4877C27.5795 15.0797 27.0474 14.6007 26.675 13.9975C26.3912 13.5362 26.0542 13.3766 25.5221 13.3766C23.6067 13.412 21.7089 13.3943 19.8289 13.3943ZM31.2864 16.8183C31.2864 16.0732 31.2686 15.3458 31.2864 14.6007C31.3041 14.1927 31.2154 13.9443 30.772 13.8378C29.4418 13.4653 28.5727 12.6137 28.2003 11.2831C28.0761 10.8751 27.881 10.7509 27.4554 10.7509C22.3829 10.7686 17.2926 10.7686 12.2201 10.7509C11.8299 10.7509 11.5816 10.8219 11.4575 11.2654C11.085 12.596 10.2159 13.4475 8.90347 13.8556C8.67291 13.9265 8.37139 13.9443 8.37139 14.3168C8.38913 15.9667 8.37139 17.6167 8.37139 19.2843C8.37139 19.6214 8.6197 19.6391 8.868 19.6214C9.08083 19.6036 9.38235 19.7278 9.41782 19.373C9.52424 18.1666 10.4288 17.1199 10.0918 15.8248C9.98537 15.4523 10.2159 15.1861 10.5707 14.9733C11.4397 14.4942 12.1314 13.8023 12.5926 12.933C12.7877 12.5605 13.0714 12.454 13.4616 12.454C17.6828 12.454 21.904 12.454 26.1252 12.454C26.5508 12.454 26.8346 12.596 27.0474 12.9863C27.5086 13.8378 28.1826 14.4765 29.0162 14.9733C29.2467 15.1152 29.566 15.2394 29.5305 15.5232C29.3531 16.8183 29.8675 17.9715 30.169 19.1601C30.2754 19.5682 30.3996 19.6036 30.7365 19.6214C31.109 19.6391 31.2686 19.5149 31.2686 19.1246C31.2686 18.3618 31.2864 17.5989 31.2864 16.8183ZM19.8289 24.6953C15.6964 24.6953 11.5639 24.6953 7.43138 24.6953C6.97025 24.6953 6.56232 24.6243 6.58005 25.334C6.58005 26.0968 7.07666 25.9194 7.48459 25.9194C15.7141 25.9194 23.9614 25.9194 32.1909 25.9194C32.5988 25.9194 33.0777 26.0968 33.0954 25.334C33.0954 24.5179 32.5988 24.6953 32.1554 24.6953C28.0407 24.6953 23.9259 24.6953 19.8289 24.6953ZM13.2665 18.5037C12.5394 18.5037 11.7944 18.5037 11.0673 18.5037C10.7303 18.5037 10.3933 18.6102 10.3756 19.0182C10.3578 19.4617 10.6948 19.6214 11.085 19.6214C12.5926 19.6214 14.0824 19.6214 15.59 19.6214C15.9802 19.6214 16.3349 19.4795 16.3349 19.0537C16.3349 18.6102 15.9624 18.5037 15.59 18.5037C14.8096 18.486 14.0292 18.5037 13.2665 18.5037ZM26.3025 19.6214C27.0297 19.6214 27.7746 19.6214 28.5018 19.6214C28.8743 19.6214 29.2467 19.5504 29.2822 19.0892C29.2999 18.5569 28.892 18.5037 28.4841 18.486C27.012 18.486 25.5399 18.486 24.0678 18.486C23.6776 18.486 23.3229 18.6102 23.3229 19.0537C23.3406 19.4795 23.6776 19.6214 24.0855 19.6036C24.8304 19.6214 25.5754 19.6214 26.3025 19.6214ZM7.48459 27.9774C7.41365 27.6403 7.62648 27.2323 7.3427 26.9662C7.20081 26.8242 6.8993 26.8242 6.68647 26.9662C6.50911 27.0726 6.54458 28.5628 6.7042 28.758C6.88156 28.9709 7.12987 29.0241 7.32497 28.8822C7.62648 28.6516 7.41365 28.279 7.48459 27.9774ZM32.1554 27.8709C32.2264 28.208 32.0135 28.5983 32.3151 28.8644C32.4924 29.0241 32.7585 28.9531 32.9358 28.758C33.0954 28.5806 33.1132 27.0903 32.9536 26.9662C32.7407 26.8065 32.4747 26.8065 32.2973 26.9484C32.0313 27.1968 32.2264 27.5694 32.1554 27.8709Z" fill="#67666B"/>
<path d="M19.8289 8.26718C17.9666 8.26718 16.1043 8.26718 14.2598 8.26718C12.8054 8.26718 12.2911 7.73495 12.2911 6.28019C12.2911 4.7722 12.2733 3.26422 12.2911 1.75624C12.3088 0.58533 12.8586 0.017619 14.047 -0.000121997C17.9134 -0.017863 21.7799 -0.017863 25.6463 -0.000121997C26.8346 -0.000121997 27.3845 0.58533 27.3845 1.73849C27.4022 3.2997 27.4022 4.86091 27.3845 6.42211C27.3845 7.64624 26.8346 8.21395 25.5931 8.23169C23.6776 8.26718 21.7444 8.26718 19.8289 8.26718ZM19.8644 0.957891C18.0021 0.957891 16.1398 0.975632 14.2953 0.94015C13.5149 0.922409 13.1602 1.17078 13.1956 2.00461C13.2488 3.42389 13.2134 4.84317 13.2134 6.26244C13.2134 6.65275 13.1602 7.06079 13.6213 7.2382C14.1002 7.43335 14.4549 7.20272 14.7919 6.86564C15.5723 6.04955 16.3881 5.28669 17.1508 4.47061C17.5942 3.9916 17.9311 3.9916 18.3923 4.47061C18.8534 4.94961 19.2968 5.81892 19.8644 5.7657C20.3965 5.71247 20.8753 4.94961 21.3365 4.45286C21.7976 3.95612 22.1346 4.00934 22.578 4.47061C23.3939 5.32217 24.2452 6.13826 25.0788 6.98983C25.3803 7.30916 25.735 7.38013 26.1252 7.22046C26.4977 7.07853 26.4977 6.74145 26.4977 6.40437C26.4977 4.93187 26.4622 3.45937 26.5154 1.98687C26.5331 1.22401 26.2316 0.94015 25.4867 0.94015C23.5712 0.975632 21.7267 0.957891 19.8644 0.957891ZM19.8821 7.2382C19.1549 6.5463 18.6229 6.04955 18.1085 5.53506C17.9134 5.33991 17.7538 5.1625 17.47 5.44636C16.9202 5.99633 16.3172 6.49308 15.7496 7.02531C15.8028 7.09627 15.856 7.16723 15.9092 7.2382C17.133 7.2382 18.3745 7.2382 19.8821 7.2382ZM23.7486 7.29142C23.8018 7.18498 23.855 7.07853 23.9082 6.98983C23.518 6.67049 23.1278 6.36889 22.7554 6.01407C21.8863 5.1625 21.8863 5.14476 21.0527 6.03181C20.8753 6.22696 20.4674 6.36889 20.6625 6.72371C20.8044 6.98983 21.035 7.27368 21.4074 7.27368C22.1878 7.30916 22.9682 7.29142 23.7486 7.29142Z" fill="#67666B"/>
<path d="M3.93743 22.7615C3.93743 24.571 3.95516 26.3629 3.93743 28.1725C3.93743 28.6692 3.9729 29.0595 4.62913 28.9708C4.89517 28.9353 5.17895 29.0595 5.19668 29.3966C5.21442 29.7691 4.93064 29.8933 4.61139 29.9111C3.86648 29.9288 3.1393 29.9111 2.39439 29.9111C2.07514 29.9111 1.77363 29.8224 1.73816 29.4676C1.70268 29.095 2.02193 28.9531 2.34118 28.9885C2.99741 29.0595 3.05062 28.7047 3.03289 28.1902C3.01515 24.5888 2.99741 20.9874 3.05062 17.3859C3.05062 16.6763 2.82005 16.5166 2.18156 16.5699C1.68495 16.6231 1.1706 16.5699 0.673993 16.5699C0.053231 16.5699 -0.124129 16.2683 0.0887031 15.7183C0.532104 14.4232 1.01098 13.1458 1.47211 11.8685C1.614 11.4959 1.84457 11.2653 2.2525 11.3185C2.28797 11.3185 2.30571 11.3185 2.34118 11.3185C5.16121 11.1943 5.16121 11.1943 6.17217 13.8555C6.65104 15.0974 7.12991 16.3215 6.97029 17.7053C6.93482 18.0601 6.98802 18.5036 6.49142 18.4859C5.97707 18.4681 6.10122 18.0069 6.04801 17.6698C5.99481 17.315 6.27858 16.765 5.83518 16.6408C5.32084 16.4989 4.71781 16.5521 4.16799 16.6053C3.79554 16.6408 3.93743 17.0311 3.93743 17.2618C3.91969 19.1068 3.93743 20.9341 3.93743 22.7615ZM3.29893 15.6118C4.07931 15.6118 4.70008 15.6118 5.32084 15.6118C5.58688 15.6118 5.81745 15.5586 5.69329 15.2215C5.35631 14.299 5.01932 13.3942 4.6646 12.4894C4.62913 12.4007 4.50498 12.2588 4.43403 12.2588C3.7778 12.2411 3.12157 12.1524 2.50081 12.2765C2.0574 12.383 2.07514 13.0039 1.91552 13.3942C1.63174 14.0861 1.04645 15.0974 1.29475 15.4344C1.70268 15.9667 2.71364 15.5231 3.29893 15.6118Z" fill="#67666B"/>
<path d="M19.8289 1.59658C20.5383 1.63207 21.1591 2.28848 21.1059 3.01586C21.0704 3.77872 20.4497 4.31095 19.687 4.25773C18.9598 4.22225 18.4455 3.65454 18.4632 2.90942C18.4632 2.1643 19.084 1.57884 19.8289 1.59658Z" fill="#67666B"/>
</svg>
