<svg width="29" height="26" viewBox="0 0 29 26" fill="none" xmlns="http://www.w3.org/2000/svg">
<path d="M14.4338 22.3059C11.447 22.3059 8.44549 22.3059 5.45868 22.3059C4.34047 22.3059 4.16391 22.4686 4.14919 23.5626C4.11977 24.6123 3.64894 25.0854 2.60429 25.1001C0.264872 25.1445 3.12786e-05 24.9079 0.029458 22.5721C0.0588847 20.0883 -0.117675 17.5898 0.147165 15.1208C0.235445 14.2929 0.456145 13.4946 1.00054 12.8736C1.33895 12.4893 1.44194 12.1049 1.44194 11.6022C1.41251 10.3012 1.42723 8.98542 1.44194 7.68441C1.47137 5.24503 2.69257 3.7814 5.06142 3.3083C5.2527 3.26395 5.44397 3.2196 5.63524 3.20482C6.44448 3.11611 7.12129 2.82043 7.76868 2.24385C9.26944 0.868919 11.1822 0.395827 13.1685 0.174064C15.5373 -0.0772661 17.8032 0.277553 19.9513 1.32723C20.275 1.48985 20.6576 1.65248 20.8783 1.91859C21.7316 2.96827 22.9381 3.13089 24.1446 3.33787C26.2486 3.72226 27.5728 5.30416 27.6023 7.47743C27.6317 8.92628 27.6023 10.3899 27.6023 11.8388C27.6023 12.1049 27.5875 12.371 27.8082 12.5928C28.7793 13.6129 28.9706 14.9139 28.9853 16.2297C29.0295 18.669 29 21.1084 29 23.5478C29 24.5679 28.4704 25.0854 27.4551 25.1001C27.1609 25.1001 26.8666 25.1001 26.5723 25.1001C25.3364 25.0854 24.9097 24.6566 24.8803 23.4C24.8656 22.5573 24.6302 22.3059 23.7768 22.3059C20.6576 22.3059 17.553 22.3059 14.4338 22.3059ZM14.5074 12.6667C14.2573 12.6667 14.0218 12.6667 13.7717 12.6667C10.8732 12.6667 7.97466 12.5632 5.09085 12.6962C2.10404 12.8293 1.51551 13.5981 1.41251 16.0966C1.32423 18.4768 1.38309 20.8719 1.36837 23.2669C1.36837 23.8287 1.72149 23.7696 2.04519 23.74C2.35417 23.7104 2.78085 23.947 2.81028 23.2817C2.89856 21.6111 3.6048 20.9606 5.28212 20.9606C11.4176 20.9606 17.5383 20.9606 23.6738 20.9606C25.3953 20.9606 26.0868 21.5667 26.2045 23.2965C26.2339 23.8139 26.5429 23.7696 26.8372 23.7252C27.1461 23.6809 27.6611 23.9765 27.6464 23.3113C27.5875 20.6058 27.7935 17.8855 27.5287 15.1948C27.3963 13.8346 26.8372 13.258 25.513 12.9032C24.895 12.7406 24.277 12.6519 23.6297 12.6519C20.584 12.6667 17.553 12.6667 14.5074 12.6667ZM2.81028 11.5726C3.63423 11.5726 4.20805 11.2917 4.62002 10.5525C4.95843 9.94639 5.57639 9.57678 6.19435 9.25153C7.5774 8.54189 9.03402 8.37927 10.5495 8.61581C12.2121 8.88193 13.5804 9.6507 14.5074 11.1439C15.964 8.98542 18.0386 8.36448 20.4222 8.57146C22.0848 8.7193 23.5855 9.31067 24.5566 10.7743C24.8803 11.2622 25.2481 11.4396 25.7778 11.5431C26.1751 11.617 26.2339 11.5431 26.2339 11.1883C26.2192 9.88725 26.2486 8.57146 26.2045 7.27046C26.1751 6.13208 25.4688 5.20068 24.3948 4.83107C24.0269 4.69801 23.6444 4.62409 23.2618 4.56496C22.1878 4.40233 21.099 4.31363 20.378 3.26395C20.1132 2.87956 19.6129 2.67259 19.1568 2.46561C17.2882 1.60813 15.3313 1.32723 13.2862 1.54899C11.5794 1.74118 9.85797 2.06644 8.65148 3.32309C7.82753 4.18057 6.90059 4.37276 5.88537 4.55017C5.57639 4.60931 5.25269 4.63888 4.94371 4.7128C3.8255 4.97891 2.89856 5.9251 2.85442 7.01913C2.76614 8.52711 2.81028 10.0499 2.81028 11.5726ZM12.7418 11.1883C11.1675 9.23675 6.84174 9.63592 6.00308 11.1883C8.22479 11.1883 10.4612 11.1883 12.7418 11.1883ZM16.2288 11.1735C18.5683 11.1735 20.8047 11.1735 23.1147 11.1735C21.4079 9.44373 18.0239 9.42894 16.2288 11.1735Z" fill="#67666B"/>
</svg>
