<svg width="20" height="20" viewBox="0 0 20 20" fill="none" xmlns="http://www.w3.org/2000/svg">
<path d="M9.8801 0C12.3741 0 14.8681 0 17.3621 0C18.9928 0 19.952 0.970874 19.952 2.62136C19.952 6.06796 19.952 9.51456 19.952 12.9612C19.952 14.466 18.9448 15.4854 17.458 15.4854C15.4916 15.4854 13.5252 15.4854 11.6067 15.4854C11.3189 15.4854 11.0791 15.5825 10.8873 15.7767C9.68825 17.0874 8.48921 18.3981 7.29017 19.7573C7.05036 20 6.95444 20 6.66667 19.8058C6.09113 19.2718 6.09113 19.2718 6.61871 18.6893C7.86571 17.3301 9.11271 15.9709 10.3118 14.6117C10.5036 14.4175 10.6954 14.3204 10.9832 14.3204C13.0935 14.3204 15.1559 14.3204 17.2662 14.3204C18.2734 14.3204 18.753 13.8835 18.753 12.8641C18.753 9.41748 18.753 6.01942 18.753 2.57282C18.753 1.69903 18.3213 1.26214 17.458 1.26214C12.4221 1.26214 7.43405 1.26214 2.39808 1.26214C1.43885 1.26214 1.19904 1.50485 1.19904 2.47573C1.19904 5.92233 1.19904 9.32039 1.19904 12.767C1.19904 13.835 1.6307 14.2718 2.73381 14.2718C4.17266 14.2718 5.56355 14.2718 7.0024 14.2718C7.38609 14.2718 7.48201 14.3689 7.48201 14.7573C7.43405 15.6796 7.52998 15.534 6.71463 15.534C5.27578 15.534 3.88489 15.534 2.44604 15.534C1.00719 15.534 0 14.5146 0 13.0583C0 9.56311 0 6.06796 0 2.57282C0 0.776699 0.719424 0.0485437 2.44604 0C4.55635 0 6.71463 0 8.82494 0C9.16067 0 9.54436 0 9.8801 0Z" fill="black"/>
<path d="M10.6475 9.46626C10.6955 7.37888 12.3741 5.34004 14.5804 4.70898C14.6283 4.70898 14.7243 4.66043 14.7722 4.66043C15.7314 4.41771 15.7794 4.41771 15.5396 5.43713C15.4916 5.72839 15.2998 5.72839 15.1079 5.77694C14.0048 6.0682 13.2374 6.74781 12.9017 7.86432C12.8058 8.25267 12.8058 8.3983 13.2374 8.3983C14.1487 8.3983 14.3885 8.68956 14.2926 9.61189C14.1487 10.9711 12.7099 11.7478 11.5108 11.1653C10.8394 10.7769 10.5996 10.1944 10.6475 9.46626Z" fill="black"/>
<path d="M7.29014 11.311C6.04313 11.311 5.32371 10.3402 5.61148 8.9324C6.04313 6.69939 7.52994 5.43725 9.54433 4.70909C9.59229 4.70909 9.64026 4.70909 9.68822 4.66055C9.97599 4.61201 10.3597 4.36929 10.5515 4.56346C10.7434 4.75764 10.4556 5.14599 10.4556 5.48579C10.4556 5.77706 10.1678 5.72851 10.0239 5.77706C8.87287 6.06832 8.10548 6.79647 7.76975 7.96152C7.67383 8.30133 7.72179 8.44696 8.05752 8.39842H8.10548C9.06472 8.39842 9.2086 8.59259 9.16064 9.56346C9.16064 10.5829 8.34529 11.311 7.29014 11.311Z" fill="black"/>
</svg>
