<?xml version="1.0" encoding="UTF-8" standalone="no"?>
<svg
   width="16"
   height="18"
   viewBox="0 0 16 18"
   fill="none"
   version="1.1"
   id="svg4"
   sodipodi:docname="calender_icon.svg"
   inkscape:version="1.4 (e7c3feb1, 2024-10-09)"
   xmlns:inkscape="http://www.inkscape.org/namespaces/inkscape"
   xmlns:sodipodi="http://sodipodi.sourceforge.net/DTD/sodipodi-0.dtd"
   xmlns="http://www.w3.org/2000/svg"
   xmlns:svg="http://www.w3.org/2000/svg">
  <sodipodi:namedview
     id="namedview4"
     pagecolor="#ffffff"
     bordercolor="#000000"
     borderopacity="0.25"
     inkscape:showpageshadow="2"
     inkscape:pageopacity="0.0"
     inkscape:pagecheckerboard="0"
     inkscape:deskcolor="#d1d1d1"
     inkscape:zoom="22.277778"
     inkscape:cx="8.0124688"
     inkscape:cy="10.817955"
     inkscape:window-width="1200"
     inkscape:window-height="951"
     inkscape:window-x="0"
     inkscape:window-y="25"
     inkscape:window-maximized="0"
     inkscape:current-layer="g4" />
  <g
     clip-path="url(#clip0_20169_344)"
     id="g4">
    <path
       style="fill:#67666b;stroke-miterlimit:10"
       d="M 0.92578125,1.5292969 C 0.52805771,1.5292969 0.20089737,1.7358911 0,1.9785156 -0.20089737,2.2211402 -0.31445312,2.5141704 -0.31445313,2.8476563 V 17.03125 c 1e-8,0.666975 0.54954312,1.263672 1.24023438,1.263672 H 15.074219 c 0.690696,0 1.240234,-0.660052 1.240234,-1.320313 V 2.7910156 c 0,-0.6669946 -0.549446,-1.2617187 -1.240234,-1.2617187 z m 0.25976565,1.5 H 14.814453 V 16.794922 H 1.1855469 Z"
       id="path1" />
    <path
       style="fill:#67666b;stroke-miterlimit:10"
       d="m 0.43554688,5.6875 v 1.5 H 15.564453 v -1.5 z"
       id="path2" />
    <path
       style="fill:#67666b;stroke-miterlimit:10"
       d="M 3.1679688,0 V 4.5566406 H 4.6679687 V 0 Z"
       id="path3" />
    <path
       style="fill:#67666b;stroke-miterlimit:10"
       d="m 11.386719,0 v 4.5566406 h 1.5 V 0 Z"
       id="path4" />
  </g>
  <defs
     id="defs4">
    <clipPath
       id="clip0_20169_344">
      <rect
         width="16"
         height="18"
         fill="white"
         id="rect4" />
    </clipPath>
  </defs>
</svg>
