<?xml version="1.0" encoding="UTF-8" standalone="no"?>
<svg
   width="18"
   height="20"
   viewBox="0 0 18 20"
   fill="none"
   version="1.1"
   id="svg4"
   sodipodi:docname="Group (14).svg"
   inkscape:version="1.4 (e7c3feb1, 2024-10-09)"
   xmlns:inkscape="http://www.inkscape.org/namespaces/inkscape"
   xmlns:sodipodi="http://sodipodi.sourceforge.net/DTD/sodipodi-0.dtd"
   xmlns="http://www.w3.org/2000/svg"
   xmlns:svg="http://www.w3.org/2000/svg">
  <defs
     id="defs4" />
  <sodipodi:namedview
     id="namedview4"
     pagecolor="#ffffff"
     bordercolor="#000000"
     borderopacity="0.25"
     inkscape:showpageshadow="2"
     inkscape:pageopacity="0.0"
     inkscape:pagecheckerboard="0"
     inkscape:deskcolor="#d1d1d1"
     inkscape:zoom="28.354982"
     inkscape:cx="9.0107622"
     inkscape:cy="10.015877"
     inkscape:window-width="1200"
     inkscape:window-height="951"
     inkscape:window-x="0"
     inkscape:window-y="25"
     inkscape:window-maximized="0"
     inkscape:current-layer="svg4" />
  <path
     d="M11.4231 19.9996C9.91261 20.0318 8.6224 19.2899 7.39513 18.4189C4.37415 16.2899 2.32869 13.3222 0.975547 9.8383C0.346177 8.19314 -0.0629144 6.4512 2.27056e-05 4.64475C0.0629598 2.4512 1.60492 0.515717 3.58744 0.0641042C4.31121 -0.0971861 4.90911 0.160878 5.25527 0.838298C5.8217 1.96733 6.10492 3.19314 6.3252 4.4512C6.4196 5.03185 6.16785 5.48346 5.66436 5.80604C5.16086 6.12862 4.59443 6.32217 4.02799 6.54797C3.49303 6.77378 3.43009 6.90281 3.6189 7.4512C4.68883 10.4189 6.29373 12.9673 8.49653 15.1609C8.87415 15.548 9.06296 15.5157 9.40911 15.0964C9.78674 14.6447 10.1958 14.1609 10.7308 13.8706C11.2343 13.5802 11.7693 13.548 12.3042 13.8706C13.2797 14.4835 14.1609 15.1931 14.8846 16.0964C15.6084 16.9673 15.6084 17.7415 14.8532 18.5802C13.9406 19.548 12.8077 19.9996 11.4231 19.9996Z"
     fill="white"
     id="path1"
     style="fill:#000000;fill-opacity:1" />
  <path
     d="M18.0001 9.29123C18.0001 9.90414 17.9372 10.4848 17.8113 11.0654C17.7169 11.5493 17.3078 11.8719 16.8358 11.8074C16.3637 11.7428 16.0491 11.3557 16.112 10.8396C16.2379 9.87188 16.3323 8.93639 16.1435 7.96865C15.5141 4.96865 13.7519 3.00091 10.8253 2.1622C10.7309 2.12994 10.6365 2.09768 10.5106 2.06543C10.0386 1.90414 9.75535 1.45252 9.88122 1.00091C10.0071 0.484781 10.4477 0.194458 10.9197 0.323491C12.5875 0.710587 14.0665 1.45252 15.2623 2.71059C17.056 4.5493 17.9686 6.74285 18.0001 9.29123Z"
     fill="white"
     id="path2"
     style="fill:#000000;fill-opacity:1" />
  <path
     d="M15.042 9.61186C15.0734 9.9667 15.0105 10.3538 14.9476 10.7409C14.8531 11.3215 14.4755 11.6119 13.9406 11.5473C13.4371 11.4828 13.1538 11.0957 13.2168 10.5473C13.3112 9.7409 13.3427 8.9667 13.0909 8.19251C12.5245 6.51509 11.4231 5.41831 9.72378 4.9667C9.28322 4.83767 9 4.64412 8.93706 4.16025C8.84266 3.48283 9.40909 3.03122 10.1329 3.22477C11.3287 3.51509 12.3986 4.09573 13.2483 5.03122C14.4126 6.28928 15.0734 7.80541 15.042 9.61186Z"
     fill="white"
     id="path3"
     style="fill:#000000;fill-opacity:1" />
  <path
     d="M12.1153 9.77464C12.0838 10.065 12.0838 10.3553 12.0209 10.6456C11.8636 11.1295 11.4859 11.3875 10.9824 11.2908C10.5419 11.194 10.2587 10.8069 10.3216 10.323C10.4475 8.96819 9.97545 8.22626 8.74818 7.8069C8.21321 7.61335 7.96147 7.194 8.08734 6.67787C8.21321 6.194 8.6223 5.96819 9.18874 6.06497C10.7622 6.32303 12.1468 8.03271 12.1153 9.77464Z"
     fill="white"
     id="path4"
     style="fill:#000000;fill-opacity:1" />
</svg>
