<svg width="20" height="18" viewBox="0 0 20 18" fill="none" xmlns="http://www.w3.org/2000/svg">
<path d="M11.8464 12.054C11.8464 11.5554 11.8369 11.0951 11.8464 10.6349C11.8558 10.3952 11.7989 10.2897 11.5331 10.2993C10.7453 10.3185 9.94792 10.3089 9.16007 10.2993C8.96074 10.2993 8.83734 10.4048 8.69495 10.5007C6.91992 11.7376 5.03098 11.9389 3.09457 10.9993C1.14868 10.05 0.0950496 8.40084 0.00962014 6.24348C-0.12327 3.06018 2.29723 0.672697 5.1259 0.509696C6.43582 0.43299 7.63183 0.768579 8.69495 1.55482C8.90378 1.70823 9.11261 1.74658 9.34991 1.74658C11.4192 1.73699 13.498 1.73699 15.5673 1.74658C18.0258 1.75617 19.7249 3.29029 19.9811 5.76407C20.0571 6.54072 19.8672 7.2886 19.5065 7.97896C19.3926 8.19949 19.3357 8.34331 19.554 8.54466C19.8198 8.78437 19.9147 9.13914 19.9052 9.50349C19.9052 11.5362 19.9147 13.5593 19.9052 15.592C19.8957 16.6947 19.0889 17.5001 18.0163 17.5001C16.5924 17.5097 15.1686 17.5097 13.7448 17.5001C12.8335 17.5001 12.1501 16.9632 11.9223 16.0619C11.8558 15.8222 11.7419 15.6304 11.5711 15.4578C11.068 14.9688 10.5839 14.4702 10.0903 13.9716C9.4923 13.358 9.41636 12.6964 9.87198 12.1403C10.3181 11.5937 11.0016 11.5554 11.6945 12.0156C11.7135 12.0252 11.7514 12.0252 11.8464 12.054ZM19.2502 12.5717C19.2502 11.5458 19.2502 10.5294 19.2502 9.50349C19.2502 9.10078 19.0889 8.81314 18.6617 8.77478C18.301 8.73643 18.0732 9.0049 18.0637 9.47473C18.0542 10.05 18.0542 10.6253 18.0637 11.2006C18.0637 11.4307 18.0447 11.5937 17.741 11.5937C17.4562 11.5937 17.3993 11.4691 17.4088 11.2198C17.4183 10.5774 17.4183 9.94455 17.3993 9.30214C17.3898 8.90902 17.1999 8.62137 16.7728 8.60219C16.4311 8.58302 16.2128 8.88984 16.2033 9.34049C16.1938 9.9829 16.1938 10.6157 16.2033 11.2581C16.2033 11.4979 16.1463 11.5937 15.89 11.5937C15.6337 11.5937 15.5198 11.5362 15.5293 11.2486C15.5483 10.5774 15.5388 9.9062 15.5388 9.23502C15.5388 8.74602 15.2825 8.42002 14.9218 8.42002C14.5706 8.4296 14.3523 8.71725 14.3428 9.20625C14.3333 9.87743 14.3238 10.5486 14.3428 11.2198C14.3523 11.5362 14.2099 11.5937 13.9441 11.5841C13.6309 11.5746 13.6973 11.354 13.6973 11.1814C13.6973 9.83908 13.6973 8.49672 13.6878 7.15437C13.6878 6.65578 13.4126 6.35854 13.0424 6.37772C12.6722 6.39689 12.4918 6.65578 12.4918 7.17354C12.4918 8.08443 12.4918 8.99531 12.4918 9.9062C12.4918 10.865 12.4918 11.8239 12.4918 12.7827C12.4918 12.9744 12.5013 13.1854 12.2735 13.2717C12.0552 13.358 11.9128 13.2142 11.7799 13.0703C11.6375 12.9265 11.4951 12.7731 11.3433 12.6293C10.9826 12.2841 10.6598 12.2457 10.3941 12.5238C10.1283 12.8019 10.1567 13.1087 10.5175 13.4826C11.087 14.0675 11.6565 14.6332 12.226 15.2085C12.3589 15.3427 12.4633 15.477 12.5013 15.6879C12.6152 16.4646 13.0424 16.8193 13.8207 16.8289C15.1781 16.8289 16.545 16.8289 17.9024 16.8289C18.7472 16.8289 19.2218 16.3495 19.2313 15.4962C19.2502 14.5182 19.2502 13.5402 19.2502 12.5717ZM5.47711 1.15211C2.82879 1.15211 0.645595 3.34782 0.655088 6.02295C0.655088 8.68849 2.80981 10.865 5.43914 10.8842C8.14441 10.8938 10.3086 8.73643 10.3181 6.02295C10.3181 3.34782 8.14441 1.1617 5.47711 1.15211ZM9.68214 9.62814C10.2991 9.62814 10.8497 9.60896 11.3907 9.63773C11.7324 9.6569 11.8653 9.57061 11.8464 9.19667C11.8179 8.46796 11.8274 7.72966 11.8464 6.99136C11.8653 6.25307 12.3779 5.71613 13.0424 5.69695C13.7353 5.67777 14.2764 6.19554 14.3428 6.94342C14.3618 7.15437 14.3618 7.35572 14.3523 7.56666C14.3428 7.80637 14.4187 7.8639 14.6465 7.80637C15.0547 7.7009 15.4344 7.78719 15.7476 8.07484C15.8805 8.19949 15.966 8.22825 16.1463 8.11319C16.6494 7.79678 17.1335 7.8639 17.5986 8.22825C17.6745 8.29537 17.7315 8.42002 17.8739 8.36249C18.4149 8.12278 18.9845 7.93101 19.1268 7.23107C19.2028 6.85713 19.3167 6.49277 19.3262 6.10924C19.3831 4.09571 17.8074 2.44653 15.7761 2.41776C13.8682 2.39858 11.9508 2.40817 10.0333 2.41776C9.92894 2.41776 9.81503 2.37941 9.72011 2.48488C11.3812 4.834 11.3907 7.19272 9.68214 9.62814Z" fill="black"/>
<path d="M1.48085 6.15747C1.49034 5.63012 1.72764 5.237 2.20225 5.01647C2.66737 4.80553 3.13248 4.84388 3.53115 5.19864C3.85389 5.48629 4.15764 5.79312 4.4424 6.10953C4.62275 6.31088 4.74615 6.3013 4.93599 6.10953C5.67638 5.34247 6.42627 4.585 7.17615 3.83711C7.78365 3.22346 8.53353 3.18511 9.06509 3.71246C9.60614 4.24941 9.56817 4.99729 8.96067 5.62053C7.87857 6.72318 6.77748 7.82583 5.67638 8.92848C5.03092 9.5709 4.3285 9.5709 3.68303 8.92848C3.08502 8.33401 2.49651 7.72995 1.90799 7.13547C1.64221 6.85741 1.47135 6.55059 1.48085 6.15747ZM2.15479 6.18624C2.1358 6.378 2.24022 6.52183 2.37311 6.64647C2.9901 7.26971 3.5976 7.88336 4.21459 8.5066C4.50885 8.80383 4.83158 8.8326 5.13533 8.53536C6.30287 7.36559 7.46091 6.19582 8.61896 5.01647C8.84677 4.78635 8.87524 4.50829 8.67591 4.23982C8.42911 3.90423 8.04943 3.90423 7.69822 4.24941C6.82494 5.12194 5.95166 6.00406 5.08787 6.88618C4.8126 7.17383 4.58478 7.21218 4.30951 6.89577C3.94881 6.49306 3.55963 6.11912 3.17045 5.74518C2.97112 5.55341 2.71483 5.51506 2.46803 5.6397C2.24971 5.74518 2.1358 5.93694 2.15479 6.18624Z" fill="black"/>
</svg>
