<svg width="21" height="22" viewBox="0 0 21 22" fill="none" xmlns="http://www.w3.org/2000/svg">
<path d="M14.79 0.5C14.8832 0.51015 15.0384 0.4797 15.1523 0.540599C16.3632 1.12929 17.4292 1.87023 17.9778 3.15926C18.1951 3.6566 18.0916 4.07274 17.719 4.45843C17.2636 4.91518 16.7462 5.26027 16.1562 5.51402C15.6077 5.75761 15.0488 5.99106 14.4899 6.19406C13.5273 6.53915 12.7718 6.23465 12.3371 5.31102C12.2232 5.06742 12.1094 4.80353 12.0887 4.53963C12.0576 4.08289 11.8299 3.94079 11.4056 3.91034C10.8363 3.86974 10.2982 3.97124 9.791 4.17424C8.21782 4.81368 6.79988 5.69671 5.55788 6.84364C5.15424 7.21919 4.84374 7.66578 4.66779 8.19357C4.56429 8.48792 4.61604 8.66046 4.88514 8.87361C5.49578 9.35065 6.07538 9.86829 6.06503 10.731C6.06503 10.9949 5.99258 11.2385 5.81663 11.4314C5.01969 12.284 4.21239 13.1162 3.14635 13.644C1.88366 14.2632 1.53176 14.1515 0.765868 12.9944C0.175922 12.1013 0.0413732 11.0761 -2.6536e-05 10.0408C-0.0103765 9.7668 0.155222 9.5638 0.300121 9.35065C2.56676 5.83881 5.63033 3.24045 9.60471 1.72813C11.2607 1.10899 12.9581 0.642098 14.79 0.5Z" fill="black"/>
<path d="M10.3706 20.2921C10.4637 21.1447 10.4637 21.1447 9.69784 21.3274C8.8802 21.5304 8.06256 21.5405 7.24491 21.3781C5.73382 21.0635 4.83338 19.9977 4.77128 18.3129C4.71953 16.8614 5.20598 15.6029 6.52042 14.801C7.83486 14.0093 9.22175 13.9383 10.6086 14.598C12.2957 15.3999 12.6269 17.643 11.8299 18.9929C11.3538 19.7947 10.4016 19.9774 9.68749 19.409C9.54259 19.2974 9.49085 19.3177 9.3563 19.409C8.5904 19.8962 7.82451 19.9165 7.19316 19.4801C6.61357 19.0741 6.37552 18.252 6.59287 17.3689C6.77916 16.628 7.42086 16.0495 8.22815 15.9378C8.82845 15.8566 9.42875 15.9175 10.029 16.0393C10.2464 16.0901 10.3395 16.2017 10.3188 16.4351C10.2878 16.9223 10.2774 17.4095 10.2671 17.9069C10.2671 18.0084 10.236 18.1099 10.2464 18.2114C10.2671 18.5057 10.1946 18.9016 10.6086 18.9523C10.9605 18.9929 11.0744 18.658 11.1572 18.3839C11.6126 16.9832 11.0019 15.5217 9.74959 15.1461C8.4248 14.7401 6.65497 15.0649 5.99257 16.7802C5.71312 17.5313 5.68207 18.3027 5.89942 19.0741C6.20992 20.1804 7.38981 20.8402 8.7353 20.6778C9.28385 20.5966 9.83239 20.4951 10.3706 20.2921ZM9.2735 17.3791C9.2942 16.6686 9.1286 16.5468 8.47655 16.6889C7.83486 16.831 7.44156 17.4501 7.53471 18.1606C7.59681 18.5971 7.78311 18.9422 8.29025 18.9625C8.7767 18.9828 9.05615 18.7087 9.17 18.2723C9.2528 17.9678 9.30455 17.6531 9.2735 17.3791Z" fill="black"/>
<path d="M6.65479 13.7759C7.00668 12.5985 7.35858 11.4516 7.70013 10.3148C8.02098 9.24908 8.33147 8.1732 8.66267 7.10747C8.85932 6.46803 9.11807 6.31578 9.78046 6.50863C13.3098 7.51346 16.8495 8.5386 20.3788 9.55358C20.9584 9.72613 21.124 10.0611 20.9273 10.7005C20.3788 12.5478 19.8199 14.395 19.261 16.2322C19.0436 16.9427 18.8263 17.6531 18.6089 18.3636C18.433 18.9117 18.1536 19.0741 17.5947 18.9117C16.156 18.5057 14.7277 18.0693 13.2891 17.6734C12.8751 17.5618 12.9889 17.2878 13.0303 17.0848C13.0821 16.7803 13.3201 16.9833 13.465 17.0239C14.8002 17.3994 16.1457 17.7749 17.4705 18.1809C17.812 18.2824 17.9466 18.252 18.0501 17.8967C18.7642 15.4709 19.499 13.035 20.2339 10.6193C20.327 10.3148 20.2235 10.2032 19.9441 10.122C16.539 9.14759 13.1442 8.1732 9.74941 7.17852C9.42856 7.08717 9.34577 7.18867 9.26297 7.47286C8.72477 9.29983 8.15552 11.1268 7.62768 12.9639C7.48278 13.441 7.28613 13.7556 6.65479 13.7759Z" fill="black"/>
<path d="M9.92545 7.89941C10.1531 7.89941 10.2463 8.06181 10.3601 8.21406C11.3951 9.68578 12.4508 11.1474 13.4755 12.6292C13.6928 12.9337 13.8584 12.9946 14.2103 12.8221C15.7421 12.0913 17.2946 11.4011 18.8367 10.6906C18.9195 10.65 18.992 10.6094 19.0748 10.5891C19.2818 10.5181 19.4991 10.4775 19.613 10.7211C19.7165 10.9444 19.5819 11.1068 19.3749 11.2083C19.0644 11.3504 18.7539 11.4925 18.4434 11.6346C16.9427 12.3146 15.4523 12.9946 13.9516 13.695C13.6618 13.8269 13.4962 13.8269 13.2892 13.5326C12.1403 11.868 10.9604 10.2339 9.7909 8.57945C9.6874 8.4272 9.5425 8.28511 9.65635 8.07196C9.69775 7.95016 9.80125 7.89941 9.92545 7.89941Z" fill="black"/>
<path d="M15.7527 13.8164C15.9701 13.8266 16.0632 13.9382 16.1357 14.0803C16.6842 15.1359 17.2328 16.1813 17.7917 17.2369C17.8952 17.4297 17.9055 17.6124 17.6985 17.7241C17.4915 17.8357 17.2949 17.7748 17.181 17.5515C16.6221 16.4858 16.0632 15.4201 15.5147 14.3442C15.3905 14.1006 15.4836 13.8875 15.7527 13.8164Z" fill="black"/>
<path d="M9.53223 13.4005C10.0394 13.1265 10.5258 12.8524 11.0123 12.5784C11.1986 12.4769 11.3952 12.4667 11.5091 12.6697C11.6229 12.8727 11.5505 13.0453 11.3435 13.1772C10.7949 13.5528 10.236 13.8167 9.53223 13.4005Z" fill="black"/>
</svg>
