<svg width="13" height="16" viewBox="0 0 13 16" fill="none" xmlns="http://www.w3.org/2000/svg">
<path d="M1.45246 15.9995C1.39065 15.8482 1.23613 15.8374 1.13312 15.7617C0.422346 15.2536 0 14.5617 0 13.6428C0 10.7347 0 7.83736 0 4.94007C0 3.5779 0.999208 2.48601 2.29715 2.4752C4.28526 2.45358 6.28368 2.45358 8.27179 2.4752C9.50793 2.49682 10.5174 3.50223 10.538 4.79953C10.5792 7.79412 10.5586 10.7779 10.5483 13.7725C10.538 14.8428 9.88907 15.4914 9.07528 16.0103C6.5309 15.9995 3.99683 15.9995 1.45246 15.9995ZM9.37401 9.32925C9.37401 7.94547 9.37401 6.56169 9.37401 5.16709C9.37401 4.18331 8.88986 3.6752 7.94216 3.6752C6.16006 3.6752 4.37797 3.6752 2.58558 3.6752C1.65848 3.6752 1.16403 4.19412 1.15372 5.18871C1.14342 7.92385 1.14342 10.659 1.15372 13.3941C1.15372 14.3455 1.64818 14.8752 2.54437 14.886C4.36767 14.8968 6.18067 14.8968 8.00396 14.886C8.88986 14.8752 9.36371 14.3563 9.36371 13.4266C9.38431 12.0644 9.37401 10.7022 9.37401 9.32925Z" fill="black"/>
<path d="M11.4445 0C12.5673 0.583784 13.0103 1.53514 13 2.84324C12.9691 5.77297 12.9897 8.71351 12.9897 11.6432C12.9897 11.8054 13.0103 11.9784 12.9691 12.1297C12.897 12.4432 12.6909 12.6378 12.3819 12.6378C12.1038 12.6378 11.8875 12.4757 11.8256 12.1838C11.7844 11.9892 11.7844 11.7946 11.7844 11.6C11.7844 8.67027 11.7844 5.72973 11.7844 2.8C11.7844 1.54595 11.3724 1.12432 10.1775 1.12432C8.16875 1.12432 6.16003 1.12432 4.16162 1.12432C3.34783 1.12432 3.16241 0.843243 3.41994 0.0216216C6.08793 0 8.76622 0 11.4445 0Z" fill="black"/>
</svg>
