<svg width="10" height="11" viewBox="0 0 10 11" fill="none" xmlns="http://www.w3.org/2000/svg">
<path d="M9.3392 10.0107C9.15216 10.0241 8.98516 9.90382 8.83152 9.75018C7.62244 8.53442 6.40667 7.32533 5.20427 6.10289C5.03059 5.92253 4.94375 5.92921 4.77006 6.10289C3.57434 7.31865 2.36526 8.51438 1.16285 9.72346C1.04929 9.83702 0.949089 9.95058 0.788769 9.98398C0.508207 10.0441 0.254367 9.99734 0.0806866 9.73682C-0.0796347 9.48966 -0.0395546 9.14898 0.194246 8.91518C0.848889 8.25386 1.51689 7.59253 2.17821 6.93121C2.7527 6.35673 3.3205 5.77557 3.90834 5.21444C4.08202 5.04744 4.06866 4.96728 3.90834 4.80028C2.69926 3.60456 1.49685 2.39547 0.287766 1.19307C0.167526 1.07283 0.0406065 0.959267 0.0138865 0.785586C-0.0395536 0.498345 0.0138865 0.251184 0.281087 0.0908642C0.534928 -0.0627766 0.862249 -0.016016 1.10273 0.224464C1.67721 0.798946 2.25169 1.37343 2.82618 1.94791C3.4875 2.60923 4.1555 3.26388 4.80346 3.93856C4.95711 4.09888 5.04395 4.08552 5.19091 3.93188C6.41335 2.69607 7.64248 1.47363 8.8716 0.244505C9.13212 -0.016016 9.45944 -0.0694571 9.71996 0.0908642C9.98717 0.257865 10.0339 0.505026 9.98049 0.792267C9.94709 0.965947 9.82016 1.07951 9.69992 1.19307C8.48416 2.39547 7.28843 3.59788 6.08603 4.78692C5.89899 4.97396 5.90567 5.06748 6.08603 5.24784C7.30179 6.44357 8.49752 7.65265 9.7066 8.85506C9.86024 9.00202 9.98049 9.16234 9.98049 9.39614C9.97381 9.75686 9.74 10.004 9.3392 10.0107Z" fill="black"/>
</svg>
