<svg width="8" height="6" viewBox="0 0 8 6" fill="none" xmlns="http://www.w3.org/2000/svg">
<path d="M0 0.618094C0.0794702 0.420354 0.238411 0.307359 0.370861 0.166116C0.582781 -0.0598724 0.821192 -0.0598724 1.0596 0.194365C1.5894 0.759337 2.09272 1.29606 2.62252 1.86103C3.04636 2.31301 3.4702 2.73674 3.86755 3.21696C3.97351 3.32996 4.02649 3.32996 4.13245 3.21696C5.0596 2.22826 5.98675 1.23956 6.91391 0.250862C7.2053 -0.0598724 7.41722 -0.0598724 7.68212 0.250862C7.78808 0.363856 7.92053 0.505099 8 0.646342C8 0.731088 8 0.787585 8 0.872331C7.94702 1.01357 7.84106 1.12657 7.7351 1.23956C6.62252 2.39775 5.50993 3.61244 4.39735 4.79888C4.13245 5.08137 3.89404 5.08137 3.62914 4.79888C2.49007 3.5842 1.35099 2.36951 0.211921 1.15482C0.13245 1.07007 0.0529801 0.957077 0 0.844082C0 0.787585 0 0.702839 0 0.618094Z" fill="black"/>
</svg>
