<svg width="11" height="11" viewBox="0 0 11 11" fill="none" xmlns="http://www.w3.org/2000/svg">
<path d="M10.1541 2.41361C10.1541 2.59568 10.0855 2.73223 9.94828 2.84603C8.53026 4.27985 7.11225 5.69092 5.69423 7.10198C5.67136 7.12474 5.64849 7.1475 5.62562 7.1475C4.96235 7.46613 4.27622 7.69372 3.56721 7.85303C3.29275 7.92131 3.06404 7.57992 3.13265 7.30681C3.31562 6.69232 3.54434 6.10058 3.75018 5.50884C3.79592 5.39505 3.88741 5.30401 3.97889 5.23573C5.35116 3.87019 6.72344 2.50464 8.09571 1.11634C8.43878 0.77495 8.71323 0.752191 9.07917 1.09358C9.3765 1.36669 9.65095 1.66256 9.94828 1.95842C10.0855 2.09498 10.177 2.23153 10.1541 2.41361ZM8.53026 3.66536C8.53026 3.57432 8.48452 3.55156 8.43878 3.5288C8.11858 3.21017 7.79838 2.91431 7.50106 2.59568C7.40957 2.50464 7.34096 2.5274 7.24947 2.59568C6.28888 3.55156 5.32829 4.50744 4.3677 5.44057C4.25334 5.55436 4.27622 5.59988 4.3677 5.69092C4.6879 5.98678 4.98522 6.28265 5.30542 6.60128C5.41978 6.71508 5.48839 6.69232 5.60275 6.57852C6.54047 5.6454 7.50106 4.68952 8.43878 3.75639C8.46165 3.73363 8.50739 3.71087 8.53026 3.66536ZM8.62175 1.27565C8.55313 1.27565 8.50739 1.32117 8.46165 1.36669C8.37016 1.45772 8.25581 1.57152 8.16432 1.66256C8.00422 1.82187 7.72977 1.98118 7.72977 2.1405C7.72977 2.29981 7.98135 2.48188 8.14145 2.61844C8.39303 2.84603 8.59888 3.30121 8.8962 3.25569C9.17066 3.21017 9.39937 2.80051 9.65095 2.55016C9.76531 2.43636 9.74244 2.34533 9.65095 2.25429C9.35363 1.95842 9.0563 1.66256 8.75897 1.36669C8.7361 1.34393 8.69036 1.27565 8.62175 1.27565ZM5.05384 6.96543C4.6879 6.62404 4.34483 6.32817 4.02463 6.0323C3.8874 6.46473 3.65869 6.94267 3.56721 7.48889C4.07037 7.30681 4.55067 7.1475 5.05384 6.96543Z" fill="#67666B"/>
<path d="M0.86833 6.19153C0.86833 5.19013 0.86833 4.18873 0.86833 3.21009C0.86833 2.4818 1.11991 2.23145 1.85179 2.23145C2.74377 2.23145 3.65862 2.23145 4.5506 2.23145C4.7107 2.23145 4.82505 2.23145 4.82505 2.45904C4.82505 2.66387 4.7107 2.66387 4.5506 2.66387C3.63575 2.66387 2.7209 2.66387 1.82892 2.66387C1.34863 2.66387 1.28001 2.73215 1.28001 3.18733C1.28001 5.19013 1.28001 7.21569 1.28001 9.21849C1.28001 9.65091 1.3715 9.74195 1.80605 9.74195C3.81872 9.74195 5.83138 9.74195 7.84405 9.74195C8.30148 9.74195 8.37009 9.67367 8.37009 9.19573C8.37009 8.28537 8.37009 7.375 8.37009 6.46464C8.37009 6.30533 8.37009 6.21429 8.57593 6.21429C8.78177 6.21429 8.78177 6.32808 8.78177 6.46464C8.78177 7.39776 8.78177 8.33089 8.78177 9.26401C8.78177 9.85575 8.48445 10.1516 7.88979 10.1516C5.83139 10.1516 3.79585 10.1516 1.73744 10.1516C1.14278 10.1516 0.845459 9.87851 0.845459 9.26401C0.86833 8.23985 0.86833 7.21569 0.86833 6.19153Z" fill="#67666B"/>
</svg>
