<svg width="23" height="17" viewBox="0 0 23 17" fill="none" xmlns="http://www.w3.org/2000/svg">
<path d="M0 3.82766C1.89606 3.19412 3.66846 2.60018 5.43056 2.00623C7.35753 1.37269 9.27419 0.725955 11.1909 0.0792163C11.3763 0.0132225 11.5412 -0.0395726 11.737 0.0264212C15.3746 1.25391 19.0224 2.46819 22.6599 3.68248C22.7527 3.70887 22.8454 3.77487 23 3.86726C21.5986 4.34241 20.2693 4.80437 18.9194 5.22673C18.569 5.33232 18.466 5.5171 18.466 5.97906C18.4866 7.60251 18.4556 9.23915 18.4866 10.8626C18.4969 11.6149 18.2392 12.0505 17.7549 12.3673C17.2912 12.6708 16.8069 12.882 16.302 12.9876C15.9825 13.0536 15.9207 13.2516 15.931 13.6079C15.9413 14.5715 15.9207 15.5482 15.9413 16.5117C15.9516 16.8944 15.8486 17 15.56 17C15.2612 17 15.1788 16.8812 15.1891 16.5117C15.2097 15.6142 15.1788 14.7034 15.1994 13.8059C15.2097 13.3308 15.0654 13.2516 14.746 13.3044C12.8499 13.6343 10.9435 13.6343 9.04749 13.4232C7.87276 13.2912 6.69803 13.1328 5.58513 12.552C4.71953 12.1033 4.56496 11.7997 4.56496 10.6382C4.56496 9.08077 4.55466 7.51012 4.57527 5.95266C4.58557 5.5171 4.46192 5.34552 4.14247 5.25313C2.84409 4.84397 1.556 4.39521 0.267921 3.95965C0.226702 3.93325 0.175179 3.90686 0 3.82766ZM15.1891 9.42394C15.1891 8.65841 15.1788 7.87968 15.1891 7.11415C15.1994 6.6654 15.1582 6.48061 14.7357 6.639C13.8392 6.99536 12.9117 7.25934 12.0049 7.57611C11.6649 7.6949 11.3454 7.6949 11.0054 7.57611C9.25358 6.96897 7.50179 6.40142 5.75 5.78108C5.35842 5.63589 5.25538 5.74148 5.27599 6.26943C5.3069 7.48372 5.28629 8.68481 5.28629 9.89909C5.28629 11.5753 5.28629 11.6017 6.56407 11.9713C9.32572 12.7764 12.108 12.7632 14.9005 12.3673C15.1685 12.3277 15.1788 12.1297 15.1788 11.8657C15.1891 11.0474 15.1891 10.2423 15.1891 9.42394ZM2.92652 3.82766C3.13262 3.92005 3.23566 3.98605 3.34901 4.02564C5.70878 4.81757 8.09946 5.5303 10.4386 6.44102C11.8297 6.98217 12.9633 6.12425 14.2204 5.79428C13.3961 5.30592 12.582 4.87037 11.7576 4.4744C11.5103 4.35561 11.397 4.25002 11.5206 3.86726C11.6443 3.49769 11.7576 3.4317 12.0461 3.59009C13.1075 4.14443 14.1792 4.67238 15.2406 5.20033C15.3952 5.27953 15.5497 5.41151 15.7352 5.34552C17.1676 4.85717 18.5999 4.36881 20.1044 3.86726C19.9601 3.78807 19.888 3.72207 19.8056 3.69568C17.147 2.79816 14.478 1.91384 11.8194 1.01633C11.5721 0.937135 11.3454 0.989931 11.1187 1.06912C9.83065 1.50468 8.54256 1.92704 7.24418 2.3626C5.83244 2.83776 4.431 3.32611 2.92652 3.82766ZM17.7549 5.64909C17.1985 5.83387 16.6832 6.00546 16.1783 6.16384C15.9825 6.21664 15.9413 6.37502 15.9413 6.5994C15.9413 8.31524 15.9413 10.0311 15.9413 11.7469C15.9413 12.0505 16.0134 12.1429 16.2504 12.0505C16.6626 11.9053 17.0851 11.7865 17.4664 11.5357C17.621 11.4301 17.7652 11.3246 17.7652 11.0474C17.7446 9.26555 17.7549 7.49692 17.7549 5.64909Z" fill="#67666B"/>
</svg>
