<svg width="25" height="25" viewBox="0 0 25 25" fill="none" xmlns="http://www.w3.org/2000/svg">
<path d="M11.5566 0C12.1698 0 12.8302 0 13.4434 0C13.5377 0.0943396 13.6792 0.0943396 13.8208 0.0943396C19.0094 0.801887 22.5 3.63208 24.3396 8.49057C24.717 9.48113 24.8113 10.5189 25 11.5566C25 12.1698 25 12.8302 25 13.4434C24.9528 13.5377 24.9057 13.6321 24.9057 13.7736C24.2453 19.0094 21.3679 22.5 16.4623 24.3396C15.4717 24.717 14.4811 24.8113 13.4434 25C12.8302 25 12.1698 25 11.5566 25C11.3208 24.8585 11.0377 24.9057 10.7547 24.8585C5.75472 23.9623 2.35849 21.1792 0.660377 16.4151C0.330189 15.4717 0.235849 14.434 0 13.4434C0 12.8302 0 12.1698 0 11.5566C0.0471698 11.4151 0.0943396 11.3208 0.0943396 11.1792C0.801887 5.99057 3.63208 2.54717 8.49057 0.660377C9.48113 0.283019 10.5189 0.188679 11.5566 0ZM22.7358 12.8774C22.9717 7.40566 18.7264 2.5 12.9245 2.26415C7.40566 2.0283 2.54717 6.32076 2.31132 12.0755C2.07547 17.5472 6.36792 22.4528 12.1226 22.6887C17.5943 22.9245 22.5 18.6792 22.7358 12.8774Z" fill="#67666B"/>
<path d="M12.5471 18.1607C10.4245 18.1136 8.632 17.5003 7.31125 15.8022C7.21691 15.6607 7.0754 15.5192 7.02823 15.3305C6.74521 14.7645 6.88672 14.1041 7.45276 13.7739C7.97162 13.4437 8.632 13.5853 9.00936 14.1985C10.2829 16.3211 14.198 16.3683 15.7075 14.7645C15.8962 14.5758 16.0377 14.3871 16.1792 14.1513C16.5565 13.6324 17.2169 13.4909 17.7358 13.8211C18.2546 14.1513 18.3962 14.8588 18.066 15.3777C17.2169 16.7928 15.8962 17.5947 14.2924 17.972C13.632 18.1136 13.066 18.1607 12.5471 18.1607Z" fill="#67666B"/>
<path d="M8.53771 11.321C7.59432 11.321 6.8396 10.6135 6.8396 9.62292C6.8396 8.67952 7.54715 7.9248 8.53771 7.9248C9.48111 7.9248 10.2358 8.67952 10.2358 9.57575C10.2358 10.6135 9.48111 11.321 8.53771 11.321Z" fill="#67666B"/>
<path d="M16.5094 11.3207C15.566 11.3207 14.8113 10.6132 14.8113 9.66979C14.8113 8.7264 15.5188 7.97168 16.5094 7.97168C17.4528 7.97168 18.2075 8.67923 18.2075 9.62262C18.1603 10.6132 17.4528 11.3207 16.5094 11.3207Z" fill="#67666B"/>
</svg>
