<svg width="24" height="24" viewBox="0 0 24 24" fill="none" xmlns="http://www.w3.org/2000/svg">
<path d="M13.7777 6.8869C13.7777 6.92916 13.7777 7.05592 13.7565 7.18268C13.7142 7.47845 13.6931 7.7531 13.7989 8.07C13.947 8.53479 14.0105 9.12634 13.4391 9.48549C13.3544 9.54887 13.3333 9.63338 13.2909 9.71789C12.9946 10.6897 12.5714 11.6193 11.8518 12.3587C11.7883 12.4221 11.746 12.5066 11.746 12.6123C11.8095 13.077 12.2116 13.4996 12.6772 13.563C13.2063 13.6475 13.7354 13.6052 14.2433 13.732C15.6825 14.0911 16.529 15.1263 16.529 16.6263C16.529 16.8376 16.5079 17.0489 16.2327 17.0489C15.9576 17.0489 15.9364 16.8587 15.9364 16.6263C15.9364 15.3799 15.238 14.5348 14.0105 14.3024C13.8624 14.2813 13.7777 14.3024 13.6719 14.3869C12.3809 15.5911 10.8148 15.9503 9.10046 15.7813C7.89412 15.6545 6.81475 15.232 5.92586 14.3658C5.84121 14.2813 5.75655 14.2813 5.65073 14.3024C4.40205 14.5348 3.68248 15.401 3.70364 16.6686C3.70364 16.8799 3.66131 17.0277 3.42851 17.0489C3.17454 17.07 3.11105 16.901 3.08988 16.6897C3.06872 15.4221 3.68248 14.1756 5.33327 13.732C5.77771 13.6263 6.22216 13.5841 6.68777 13.5841C7.34385 13.563 7.70364 13.2672 7.87295 12.6968C7.91528 12.57 7.89411 12.4644 7.7883 12.3587C7.06872 11.6404 6.6666 10.732 6.37031 9.78127C6.32798 9.65451 6.28565 9.52775 6.15867 9.44324C5.77771 9.16859 5.62957 8.40803 5.9047 8.02775C6.07401 7.79535 6.07401 7.56296 6.05285 7.33056C5.96819 6.63338 5.98935 5.9362 6.1375 5.26014C6.32798 4.35169 6.73009 3.99254 7.64015 3.8869C7.74597 3.86578 7.80946 3.84465 7.87295 3.73901C8.46554 2.78831 9.35443 2.47141 10.4338 2.68268C12.2539 3.04183 13.7989 4.90099 13.7777 6.8869ZM9.82004 12.5066C10.6878 12.7179 11.238 12.2108 11.7036 11.5982C12.1692 11.0066 12.4655 10.3094 12.6772 9.59113C12.7407 9.35873 12.8465 9.14747 13.0581 8.99958C13.3333 8.78831 13.3333 8.42916 13.0581 8.19676C12.9735 8.13338 12.91 8.04887 12.8465 7.96437C12.529 7.52071 12.2327 7.09817 11.8941 6.65451C11.4073 5.99958 10.6454 5.78831 9.9047 6.10521C9.52375 6.2531 9.16396 6.2531 8.783 6.06296C8.0211 5.68268 7.34385 6.06296 7.32269 6.92916C7.30152 7.54183 7.06872 7.94324 6.53962 8.23901C6.28565 8.3869 6.26449 8.83056 6.49729 8.97845C6.73009 9.12634 6.83591 9.33761 6.89941 9.59113C7.08988 10.2461 7.36502 10.8799 7.76713 11.4503C8.29623 12.1052 8.8465 12.7179 9.82004 12.5066ZM6.64544 7.26718C6.75126 7.09817 6.73009 6.99254 6.73009 6.8869C6.79359 5.57704 7.85179 4.94324 9.03697 5.47141C9.26978 5.57704 9.50258 5.57704 9.73538 5.49254C10.074 5.36578 10.4126 5.30239 10.7936 5.34465C11.5343 5.42916 12.0846 5.80944 12.5079 6.40099C12.6983 6.67563 12.8888 6.92916 13.1428 7.26718C13.164 7.01366 13.1851 6.84465 13.1851 6.69676C13.1005 5.15451 11.9999 3.76014 10.5185 3.31648C9.52375 3.04183 8.67718 3.27423 8.2539 4.24606C8.16925 4.4362 8.0211 4.47845 7.80946 4.45732C7.28036 4.37282 6.89941 4.62634 6.75126 5.13338C6.56078 5.83056 6.56078 6.50662 6.64544 7.26718ZM12.91 14.1968C12.2751 14.1756 11.746 13.9644 11.4497 13.3939C11.2592 13.0348 11.1534 12.9503 10.7089 13.0559C10.2222 13.1827 9.69306 13.0982 9.16396 13.0982C8.97348 13.0982 8.783 13.077 8.61369 12.9714C8.44438 12.8658 8.38089 12.9503 8.33856 13.0982C8.10576 13.6475 7.70364 14.0066 7.11105 14.1334C6.98406 14.1545 6.85708 14.1756 6.70893 14.1968C8.3174 15.6123 11.5767 15.4644 12.91 14.1968Z" fill="black"/>
<path d="M23.9998 20.5983C23.9998 22.5209 22.476 23.9997 20.55 23.9997C18.6876 23.9997 17.1426 22.4363 17.1638 20.5772C17.185 18.6969 18.7299 17.1758 20.5924 17.1758C22.4548 17.1758 23.9998 18.718 23.9998 20.5983ZM17.7775 20.5772C17.7775 22.1194 19.0262 23.4082 20.5924 23.4082C22.1373 23.4082 23.4072 22.1194 23.4072 20.5983C23.4072 19.0983 22.1585 17.8096 20.677 17.7885C19.0474 17.7673 17.7775 18.9927 17.7775 20.5772Z" fill="black"/>
<path d="M0 16.0145C0 15.4229 0 14.8314 0 14.2398C0 14.0074 0 13.7539 0.31746 13.7539C0.592593 13.7539 0.613757 13.9863 0.613757 14.2187C0.613757 15.3173 0.613757 16.4159 0.613757 17.5145C0.613757 18.4652 1.18519 19.0356 2.15873 19.0356C3.25926 19.0356 4.38095 19.0356 5.48148 19.0356C5.67196 19.0356 5.86243 19.0567 5.90476 19.2891C5.94709 19.5215 5.82011 19.6483 5.5873 19.6483C4.33862 19.6483 3.08995 19.6905 1.86243 19.6271C0.846561 19.5849 0.10582 18.7821 0.042328 17.768C-0.021164 17.1976 0.021164 16.606 0 16.0145Z" fill="black"/>
<path d="M0.0212441 3.61268C0.0212441 3.02113 8.00886e-05 2.40845 0.0212441 1.8169C0.0847362 0.845071 0.931297 0.0211268 1.92601 0C3.11119 0 4.31754 0 5.50273 0C5.71437 0 5.90484 0.0633803 5.90484 0.295775C5.90484 0.528169 5.71437 0.612676 5.50273 0.612676C4.42336 0.612676 3.32283 0.612676 2.24347 0.612676C1.14294 0.612676 0.613837 1.14084 0.613837 2.26056C0.613837 3.3169 0.613837 4.39437 0.613837 5.4507C0.613837 5.66197 0.613837 5.87324 0.338704 5.89437C0.0424081 5.89437 0.0212441 5.6831 0.0212441 5.4507C8.00886e-05 4.83803 8.00886e-05 4.22535 0.0212441 3.61268Z" fill="black"/>
<path d="M19.6404 3.65493C19.6404 4.24648 19.6404 4.85916 19.6404 5.4507C19.6404 5.66197 19.6193 5.87324 19.3441 5.87324C19.0478 5.87324 19.0478 5.64085 19.0478 5.42958C19.0478 4.33099 19.0478 3.23239 19.0478 2.1338C19.0478 1.16197 18.4764 0.591549 17.5029 0.591549C16.4447 0.591549 15.3865 0.591549 14.3283 0.591549C14.2436 0.591549 14.1378 0.591549 14.0531 0.591549C13.8627 0.570423 13.7568 0.464789 13.7568 0.274648C13.7568 0.126761 13.8627 0 14.0531 0C14.3918 0 14.7304 0 15.069 0C15.9156 0 16.7621 0 17.6087 0C18.7092 0 19.5769 0.78169 19.6193 1.88028C19.6616 2.47183 19.6193 3.06338 19.6404 3.65493Z" fill="black"/>
<path d="M14.9205 19.6482C14.6454 19.6482 14.3703 19.6482 14.0951 19.6482C13.8835 19.6482 13.7354 19.5637 13.7354 19.3524C13.7354 19.1411 13.8835 19.0566 14.0951 19.0566C14.6454 19.0566 15.2168 19.0566 15.7671 19.0566C15.9787 19.0566 16.1269 19.1411 16.1269 19.3524C16.1269 19.5848 15.9787 19.6482 15.7671 19.6482C15.492 19.6693 15.2168 19.6482 14.9205 19.6482Z" fill="black"/>
<path d="M19.0476 14.9582C19.0476 14.6835 19.0476 14.3878 19.0476 14.1131C19.0476 13.923 19.1322 13.7751 19.3227 13.754C19.5344 13.7328 19.6402 13.8807 19.6402 14.092C19.6402 14.6624 19.6402 15.254 19.6402 15.8244C19.6402 16.0145 19.5555 16.1624 19.3439 16.1624C19.1322 16.1624 19.0264 16.0145 19.0476 15.8033C19.0476 15.5286 19.0476 15.2328 19.0476 14.9582Z" fill="black"/>
<path d="M20.4019 21.1475C20.8252 20.5559 21.2485 20.0066 21.6506 19.4573C21.7776 19.2672 21.9257 19.1404 22.1373 19.2883C22.349 19.4362 22.2643 19.6263 22.1373 19.8165C21.6717 20.4503 21.2061 21.1052 20.7194 21.7601C20.5077 22.0559 20.3172 22.0559 20.0844 21.7601C19.7246 21.3165 19.386 20.8728 19.0262 20.4291C18.8781 20.2601 18.8146 20.07 19.0051 19.901C19.2167 19.732 19.3649 19.8798 19.513 20.0489C19.8093 20.408 20.0844 20.7672 20.4019 21.1475Z" fill="black"/>
</svg>
