<svg width="18" height="14" viewBox="0 0 18 14" fill="none" xmlns="http://www.w3.org/2000/svg">
<path d="M17.5 5.0599C17.1978 7.02854 15.8982 8.41651 14.44 9.71241C13.9111 10.1869 13.3671 10.6401 12.8156 11.0862C11.7049 11.9926 10.5791 12.8849 9.46089 13.7772C9.09822 14.0675 8.90933 14.0746 8.54667 13.7772C7.00533 12.5237 5.42622 11.3128 3.92267 10.024C3.29556 9.49288 2.70622 8.92637 2.16222 8.32445C1.29333 7.38262 0.696444 6.31332 0.5 5.0599C0.5 4.72708 0.5 4.40133 0.5 4.0685C0.620889 3.61529 0.681333 3.14792 0.877778 2.70887C1.55022 1.22885 2.69867 0.279934 4.40622 0.0533281C6.08356 -0.166196 7.42844 0.449889 8.44089 1.71038C8.63733 1.95823 8.81111 2.22733 9.00756 2.50351C9.44578 1.77412 9.95956 1.13679 10.6849 0.676495C12.944 -0.7752 16.0644 0.216201 17.1222 2.70887C17.3111 3.14792 17.3791 3.61529 17.5 4.0685C17.5 4.40133 17.5 4.73416 17.5 5.0599ZM5.00311 0.945589C4.67067 0.945589 4.35333 0.988078 4.036 1.07306C2.19244 1.60416 1.10444 3.55156 1.59556 5.42814C1.87511 6.49744 2.52489 7.35429 3.29556 8.14033C4.988 9.85404 6.97511 11.2562 8.82622 12.7999C9.01511 12.9557 9.10578 12.8566 9.22667 12.7574C10.3222 11.8722 11.4329 11.0012 12.5209 10.1019C13.5711 9.23795 14.6138 8.35985 15.4449 7.29764C16.4044 6.07255 16.8124 4.73416 16.2836 3.23997C15.5053 1.02349 12.7627 0.223283 10.9418 1.68206C10.2391 2.24149 9.79333 2.95672 9.51378 3.764C9.42311 4.01185 9.29467 4.20305 9.00756 4.21013C8.71289 4.21013 8.57689 4.02601 8.49378 3.77108C8.32756 3.26122 8.07822 2.78676 7.73067 2.36188C7.04311 1.50502 6.18178 0.945589 5.00311 0.945589Z" fill="#F15925"/>
</svg>
