<?xml version="1.0" encoding="UTF-8" standalone="no"?>
<svg
   width="26"
   height="26"
   viewBox="0 0 26 26"
   fill="none"
   version="1.1"
   id="svg1"
   sodipodi:docname="Vector (1).svg"
   inkscape:version="1.4 (e7c3feb1, 2024-10-09)"
   xmlns:inkscape="http://www.inkscape.org/namespaces/inkscape"
   xmlns:sodipodi="http://sodipodi.sourceforge.net/DTD/sodipodi-0.dtd"
   xmlns="http://www.w3.org/2000/svg"
   xmlns:svg="http://www.w3.org/2000/svg">
  <defs
     id="defs1" />
  <sodipodi:namedview
     id="namedview1"
     pagecolor="#ffffff"
     bordercolor="#000000"
     borderopacity="0.25"
     inkscape:showpageshadow="2"
     inkscape:pageopacity="0.0"
     inkscape:pagecheckerboard="0"
     inkscape:deskcolor="#d1d1d1"
     inkscape:zoom="21.811525"
     inkscape:cx="13.364494"
     inkscape:cy="8.8026859"
     inkscape:window-width="1200"
     inkscape:window-height="951"
     inkscape:window-x="0"
     inkscape:window-y="25"
     inkscape:window-maximized="0"
     inkscape:current-layer="svg1" />
  <path
     d="M6.06 0.5C5.32981 0.499869 4.60675 0.643593 3.93213 0.922962C3.2575 1.20233 2.64451 1.61187 2.12819 2.12819C1.61187 2.64451 1.20233 3.25749 0.922963 3.93212C0.643593 4.60675 0.499869 5.32981 0.5 6.06V19.938C0.499738 20.6683 0.643357 21.3915 0.922656 22.0663C1.20195 22.7411 1.61146 23.3543 2.12778 23.8708C2.6441 24.3873 3.25712 24.797 3.93182 25.0766C4.60652 25.3561 5.32968 25.5 6.06 25.5H19.94C20.6704 25.5 21.3936 25.3561 22.0684 25.0765C22.7432 24.7969 23.3562 24.3871 23.8726 23.8705C24.3889 23.3538 24.7984 22.7406 25.0776 22.0656C25.3569 21.3907 25.5004 20.6674 25.5 19.937V6.062C25.5004 5.33165 25.3569 4.60837 25.0776 3.93351C24.7984 3.25865 24.3889 2.64543 23.8725 2.1289C23.3562 1.61237 22.7431 1.20265 22.0683 0.923153C21.3936 0.643659 20.6704 0.499869 19.94 0.5H6.06ZM6.06 1.46H19.94C20.5448 1.45735 21.1442 1.57453 21.7035 1.80476C22.2628 2.035 22.7709 2.37373 23.1986 2.80141C23.6263 3.22908 23.965 3.73724 24.1952 4.29653C24.4255 4.85582 24.5426 5.45518 24.54 6.06V19.938C24.5426 20.5428 24.4255 21.1422 24.1952 21.7015C23.965 22.2608 23.6263 22.7689 23.1986 23.1966C22.7709 23.6243 22.2628 23.963 21.7035 24.1932C21.1442 24.4235 20.5448 24.5406 19.94 24.538H6.06C5.45518 24.5406 4.85582 24.4235 4.29653 24.1932C3.73724 23.963 3.22909 23.6243 2.80141 23.1966C2.37373 22.7689 2.035 22.2608 1.80476 21.7015C1.57453 21.1422 1.45735 20.5428 1.46 19.938V6.06C1.45735 5.45518 1.57453 4.85582 1.80476 4.29653C2.035 3.73724 2.37373 3.22908 2.80141 2.80141C3.22909 2.37373 3.73724 2.035 4.29653 1.80476C4.85582 1.57453 5.45518 1.45735 6.06 1.46ZM7.96 8.5C7.85107 8.50505 7.74678 8.54558 7.66302 8.61541C7.57926 8.68523 7.52062 8.78053 7.49604 8.88677C7.47147 8.99301 7.48229 9.10437 7.52688 9.20389C7.57146 9.30341 7.64736 9.38562 7.743 9.438C7.745 9.43801 7.747 9.43801 7.749 9.438L11.534 13.223V17.496C11.5344 17.5884 11.5604 17.679 11.6091 17.7575C11.6578 17.8361 11.7274 17.8996 11.81 17.941L13.788 18.941C13.8642 18.9798 13.9491 18.9985 14.0345 18.9951C14.1199 18.9918 14.2031 18.9666 14.276 18.922C14.349 18.8773 14.4092 18.8147 14.4511 18.7401C14.4929 18.6656 14.5149 18.5815 14.515 18.496V13.201L18.335 9.383C18.3863 9.34075 18.4286 9.2887 18.4596 9.2299C18.4905 9.17109 18.5094 9.10671 18.5152 9.04051C18.521 8.97431 18.5135 8.90763 18.4932 8.84436C18.4729 8.78108 18.4402 8.72249 18.397 8.672C18.3967 8.672 18.3973 8.672 18.397 8.672C18.3538 8.62216 18.3001 8.58138 18.241 8.552C18.2403 8.552 18.2397 8.552 18.239 8.552C18.2249 8.54567 18.2106 8.54 18.196 8.535C18.1947 8.53499 18.1933 8.53499 18.192 8.535C18.1779 8.52935 18.1636 8.52434 18.149 8.52C18.148 8.52 18.147 8.52 18.146 8.52C18.1312 8.51598 18.1161 8.51264 18.101 8.51C18.0997 8.50999 18.0983 8.50999 18.097 8.51C18.0802 8.50578 18.0632 8.50245 18.046 8.5C18.0303 8.49926 18.0147 8.49926 17.999 8.5C17.9907 8.49979 17.9823 8.49979 17.974 8.5H8.064C8.04701 8.49913 8.02999 8.49913 8.013 8.5C7.99634 8.49917 7.97966 8.49917 7.963 8.5C7.962 8.5 7.961 8.5 7.96 8.5ZM9.222 9.502H16.806L13.714 12.594C13.6384 12.6669 13.5877 12.7617 13.569 12.865C13.5318 12.9384 13.5132 13.0198 13.515 13.102V17.689L12.535 17.193V13.105C12.5358 13.0013 12.5043 12.9 12.445 12.815C12.421 12.7311 12.3755 12.6549 12.313 12.594L9.221 9.502H9.222Z"
     fill="white"
     id="path1"
     style="fill:#000000;fill-opacity:1" />
</svg>
