<?xml version="1.0" encoding="UTF-8" standalone="no"?>
<svg
   width="22"
   height="19"
   viewBox="0 0 22 19"
   fill="none"
   version="1.1"
   id="svg4"
   sodipodi:docname="finance_icon.svg"
   inkscape:version="1.4 (e7c3feb1, 2024-10-09)"
   xmlns:inkscape="http://www.inkscape.org/namespaces/inkscape"
   xmlns:sodipodi="http://sodipodi.sourceforge.net/DTD/sodipodi-0.dtd"
   xmlns="http://www.w3.org/2000/svg"
   xmlns:svg="http://www.w3.org/2000/svg">
  <sodipodi:namedview
     id="namedview4"
     pagecolor="#ffffff"
     bordercolor="#000000"
     borderopacity="0.25"
     inkscape:showpageshadow="2"
     inkscape:pageopacity="0.0"
     inkscape:pagecheckerboard="0"
     inkscape:deskcolor="#d1d1d1"
     inkscape:zoom="21.105263"
     inkscape:cx="11.016209"
     inkscape:cy="9.4763092"
     inkscape:window-width="1200"
     inkscape:window-height="951"
     inkscape:window-x="0"
     inkscape:window-y="25"
     inkscape:window-maximized="0"
     inkscape:current-layer="g4" />
  <g
     clip-path="url(#clip0_20169_365)"
     id="g4">
    <path
       style="fill:#67666b;stroke-miterlimit:10"
       d="m 8.5507813,8.6523438 c -1.2313633,0 -2.1414407,0.7816012 -2.7968751,1.5292972 -0.5785756,0.660018 -0.9800147,1.261228 -1.2324218,1.560547 H 2.25 c -0.3656582,0 -0.6808946,0.02608 -0.984375,0.125 -0.30348041,0.09892 -0.60087135,0.30008 -0.78515625,0.568359 -0.36856981,0.536559 -0.32226562,1.060915 -0.32226563,1.632812 v 2.697266 c 10e-9,0.838183 0.28398102,1.53362 0.78125001,1.947266 0.49726897,0.413646 1.09260547,0.511718 1.60156247,0.511718 h 7.4667974 c 3.675145,0 9.159641,-2.723609 10.376953,-3.373046 0.868266,-0.443296 1.231099,-1.340417 1.320312,-2.134766 0.0894,-0.795994 -0.03752,-1.560809 -0.261719,-2.150391 -0.158841,-0.417706 -0.516088,-0.743268 -0.882812,-0.884765 -0.366725,-0.141498 -0.727506,-0.145212 -1.066406,-0.101563 -0.677801,0.0873 -1.295565,0.364619 -1.769532,0.720703 0.01297,-0.0097 -0.280377,0.134694 -0.71289,0.242188 -0.399179,0.09921 -0.958376,0.199655 -1.591797,0.296875 0.01536,-0.565229 0.01192,-1.168791 -0.259766,-1.763672 C 14.825922,9.344324 14.06323,8.6523438 13.041016,8.6523438 Z m 0,1.5000002 h 4.4902347 c 0.436185,0 0.577715,0.161083 0.753906,0.546875 0.167465,0.366686 0.215906,0.91487 0.183594,1.3125 -1.228626,0.154727 -2.487937,0.305988 -4.0976566,0.455078 l 0.1386716,1.494141 c 2.134494,-0.197694 4.023988,-0.395467 5.488282,-0.613282 C 16.239959,13.238749 16.865059,13.126737 17.375,13 c 0.509941,-0.126737 0.887027,-0.227252 1.25,-0.5 0.226033,-0.169816 0.717548,-0.387464 1.060547,-0.431641 0.171499,-0.02209 0.297987,-9.71e-4 0.335937,0.01367 0.03795,0.01464 0.0034,-0.02492 0.01953,0.01758 0.1258,0.330819 0.230255,0.948741 0.173828,1.451172 -0.05643,0.502431 -0.217184,0.817422 -0.511719,0.966797 l -0.0078,0.0039 -0.0078,0.0039 c -1.007536,0.537904 -6.82556,3.199218 -9.679687,3.199218 H 2.5410156 c -0.3077129,0 -0.5273461,-0.06821 -0.6425781,-0.164062 -0.115232,-0.09585 -0.2402344,-0.252505 -0.2402344,-0.794922 v -2.697266 c 0,-0.545802 0.077164,-0.810236 0.058594,-0.783203 -0.00928,0.01352 -0.054723,0.03011 0.013672,0.0078 0.068395,-0.02229 0.2435225,-0.05078 0.5195313,-0.05078 h 2.9257812 l 0.2167969,-0.208985 c 0.5428042,-0.517658 0.9498337,-1.246812 1.4902344,-1.863281 0.5404007,-0.61647 1.091002,-1.017578 1.6679688,-1.017578 z"
       id="path1" />
    <path
       style="fill:#67666b;stroke-miterlimit:10"
       d="m 4.125,12.425781 v 6.048828 h 1.5 v -6.048828 z"
       id="path2" />
    <path
       style="fill:#67666b;stroke-miterlimit:10"
       d="m 18.642578,2.5371094 c -1.809921,0 -3.201172,1.6270794 -3.201172,3.5117187 0,1.8846317 1.391251,3.5117188 3.201172,3.5117188 1.809921,0 3.199219,-1.6270871 3.199219,-3.5117188 0,-1.8846393 -1.389298,-3.5117187 -3.199219,-3.5117187 z m 0,1.5 c 0.896279,0 1.699219,0.8463581 1.699219,2.0117187 0,1.1653483 -0.80294,2.0117188 -1.699219,2.0117188 -0.896279,0 -1.701172,-0.8463705 -1.701172,-2.0117188 0,-1.1653606 0.804893,-2.0117187 1.701172,-2.0117187 z"
       id="path3" />
    <path
       style="fill:#67666b;stroke-miterlimit:10"
       d="m 14.966797,-0.2890625 c -1.807205,0 -3.201172,1.631181 -3.201172,3.5097656 0,1.8785847 1.393965,3.5117188 3.201172,3.5117188 0.607572,0 1.150618,-0.1760702 1.59375,-0.4257813 L 15.824219,5 c -0.256869,0.1447489 -0.531594,0.2324219 -0.857422,0.2324219 -0.876194,0 -1.701172,-0.8660834 -1.701172,-2.0117188 0,-1.1456353 0.824976,-2.0097656 1.701172,-2.0097656 0.876195,0 1.699219,0.8495154 1.699219,2.0761719 v 0.3945312 h 1.5 V 3.2871094 c 0,-1.9290636 -1.392015,-3.5761719 -3.199219,-3.5761719 z"
       id="path4" />
  </g>
  <defs
     id="defs4">
    <clipPath
       id="clip0_20169_365">
      <rect
         width="21"
         height="19"
         fill="white"
         transform="translate(0.5)"
         id="rect4" />
    </clipPath>
  </defs>
</svg>
