<?xml version="1.0" encoding="UTF-8" standalone="no"?>
<svg
   width="36"
   height="27"
   viewBox="0 0 36 27"
   fill="none"
   version="1.1"
   id="svg2"
   sodipodi:docname="go_next_icon.svg"
   inkscape:version="1.4 (e7c3feb1, 2024-10-09)"
   xmlns:inkscape="http://www.inkscape.org/namespaces/inkscape"
   xmlns:sodipodi="http://sodipodi.sourceforge.net/DTD/sodipodi-0.dtd"
   xmlns="http://www.w3.org/2000/svg"
   xmlns:svg="http://www.w3.org/2000/svg">
  <defs
     id="defs2" />
  <sodipodi:namedview
     id="namedview2"
     pagecolor="#ffffff"
     bordercolor="#000000"
     borderopacity="0.25"
     inkscape:showpageshadow="2"
     inkscape:pageopacity="0.0"
     inkscape:pagecheckerboard="0"
     inkscape:deskcolor="#d1d1d1"
     inkscape:zoom="14.666667"
     inkscape:cx="18.034091"
     inkscape:cy="10.772727"
     inkscape:window-width="1200"
     inkscape:window-height="951"
     inkscape:window-x="0"
     inkscape:window-y="25"
     inkscape:window-maximized="0"
     inkscape:current-layer="svg2" />
  <path
     d="m 35.9999,14.7199 c -0.32,1.6319 -0.656,3.2477 -1.392,4.7504 -4.432,9.097 -17.024,10.1634 -22.848,1.9067 -0.704,-1.0018 -0.656,-1.9713 0.144,-2.5692 0.8,-0.5978 1.728,-0.3716 2.464,0.6141 4.528,5.9946 13.056,5.6552 16.896,-0.6625 2.768,-4.5566 1.488,-10.56735 -2.912,-13.65353 -4.368,-3.07001 -10.432,-2.14901 -13.68,2.06823 -0.16,0.21005 -0.32,0.43626 -0.48,0.64632 -0.608,0.75942 -1.52,0.93716 -2.256,0.4201 -0.72,-0.50089 -0.912,-1.48653 -0.4,-2.29443 0.976,-1.50269 2.224,-2.7307 3.728,-3.71634 8.32,-5.47756 19.312,-0.35547 20.608,9.61405 0.016,0.1615 0.096,0.307 0.128,0.4524 z"
     fill="white"
     id="path1"
     style="color:#000000;font-style:normal;font-variant:normal;font-weight:normal;font-stretch:normal;font-size:medium;line-height:normal;font-family:sans-serif;font-variant-ligatures:normal;font-variant-position:normal;font-variant-caps:normal;font-variant-numeric:normal;font-variant-alternates:normal;font-variant-east-asian:normal;font-feature-settings:normal;font-variation-settings:normal;text-indent:0;text-align:start;text-decoration-line:none;text-decoration-style:solid;text-decoration-color:#000000;letter-spacing:normal;word-spacing:normal;text-transform:none;writing-mode:lr-tb;direction:ltr;text-orientation:mixed;dominant-baseline:auto;baseline-shift:baseline;text-anchor:start;white-space:normal;shape-padding:0;shape-margin:0;inline-size:0;clip-rule:nonzero;display:inline;overflow:visible;visibility:visible;isolation:auto;mix-blend-mode:normal;color-interpolation:sRGB;color-interpolation-filters:linearRGB;solid-color:#000000;solid-opacity:1;vector-effect:none;fill:#000000;fill-opacity:1;fill-rule:nonzero;stroke:none;stroke-linecap:butt;stroke-linejoin:miter;stroke-miterlimit:4;stroke-dasharray:none;stroke-dashoffset:0;stroke-opacity:1;-inkscape-stroke:none;color-rendering:auto;image-rendering:auto;shape-rendering:auto;text-rendering:auto;enable-background:accumulate;stop-color:#000000;stop-opacity:1"
     sodipodi:nodetypes="ccccccccccccccc" />
  <path
     d="m 0,13.104 c 0.4,-0.9857 1.168,-1.2765 2.176,-1.2604 5.776,0.0162 11.568,0.0162 17.344,0.0162 h 0.864 c 0.048,-0.0808 0.112,-0.1616 0.16,-0.2262 C 19.856,10.9873 19.136,10.3733 18.48,9.69463 17.936,9.1291 17.888,8.43431 18.256,7.75567 c 0.352,-0.66247 0.96,-0.87253 1.696,-0.79174 0.416,0.04848 0.736,0.307 1.024,0.59785 1.552,1.55116 3.104,3.10232 4.624,4.68582 0.8,0.8241 0.8,1.7451 0,2.553 -1.536,1.5673 -3.072,3.1346 -4.64,4.6858 -0.816,0.8079 -1.792,0.8402 -2.48,0.1292 -0.672,-0.6948 -0.592,-1.6804 0.208,-2.5045 0.576,-0.5816 1.184,-1.1472 1.808,-1.7612 -0.336,-0.2423 -0.64,-0.1616 -0.896,-0.1616 -5.808,0 -11.616,-0.0161 -17.424,0 -0.992,0 -1.76,-0.2908 -2.176,-1.2603 z"
     fill="white"
     id="path2"
     style="color:#000000;font-style:normal;font-variant:normal;font-weight:normal;font-stretch:normal;font-size:medium;line-height:normal;font-family:sans-serif;font-variant-ligatures:normal;font-variant-position:normal;font-variant-caps:normal;font-variant-numeric:normal;font-variant-alternates:normal;font-variant-east-asian:normal;font-feature-settings:normal;font-variation-settings:normal;text-indent:0;text-align:start;text-decoration-line:none;text-decoration-style:solid;text-decoration-color:#000000;letter-spacing:normal;word-spacing:normal;text-transform:none;writing-mode:lr-tb;direction:ltr;text-orientation:mixed;dominant-baseline:auto;baseline-shift:baseline;text-anchor:start;white-space:normal;shape-padding:0;shape-margin:0;inline-size:0;clip-rule:nonzero;display:inline;overflow:visible;visibility:visible;isolation:auto;mix-blend-mode:normal;color-interpolation:sRGB;color-interpolation-filters:linearRGB;solid-color:#000000;solid-opacity:1;vector-effect:none;fill:#000000;fill-opacity:1;fill-rule:nonzero;stroke:none;stroke-linecap:butt;stroke-linejoin:miter;stroke-miterlimit:4;stroke-dasharray:none;stroke-dashoffset:0;stroke-opacity:1;-inkscape-stroke:none;color-rendering:auto;image-rendering:auto;shape-rendering:auto;text-rendering:auto;enable-background:accumulate;stop-color:#000000;stop-opacity:1"
     sodipodi:nodetypes="ccsccccccccccccsccc" />
</svg>
