<svg width="32" height="31" viewBox="0 0 32 31" fill="none" xmlns="http://www.w3.org/2000/svg">
<path d="M16.0407 17.8517C10.8433 17.7917 6.84836 13.8091 6.90951 8.72586C6.97065 3.84271 11.1694 -0.0798244 16.2649 0.000227272C21.1974 0.0802789 25.1515 4.22295 25.0904 9.24619C25.0089 13.9092 20.8305 17.8918 16.0407 17.8517ZM15.9796 15.7904C19.9133 15.7304 22.9707 12.6484 22.9503 8.80591C22.9299 5.16356 19.6687 2.04154 15.898 2.08157C12.1885 2.1216 8.98849 5.28364 9.02925 8.88596C9.07002 12.7084 12.2293 15.8505 15.9796 15.7904Z" fill="#67666B"/>
<path d="M16.3872 19.2326C18.3643 19.3526 20.7083 19.0524 23.0522 19.3927C28.0866 20.1331 31.9388 24.516 32 29.5392C32 30.2797 31.8369 30.9401 30.9809 31.0001C30.0433 31.0602 29.8599 30.3397 29.8191 29.5792C29.6153 25.4766 27.149 22.4746 23.2764 21.5741C22.6853 21.434 22.0739 21.3939 21.4624 21.3939C17.7325 21.3739 13.9821 21.3539 10.2522 21.3939C6.09424 21.434 2.46622 24.8762 2.20125 28.9588C2.18087 29.219 2.20125 29.4992 2.18087 29.7593C2.1401 30.4598 1.89552 31.0602 1.05985 31.0202C0.285325 30.9801 -0.0204076 30.4198 -2.54583e-05 29.6793C0.0407389 27.638 0.570675 25.7167 1.71208 24.0156C3.79106 20.9336 6.78724 19.3726 10.5172 19.2526C12.3516 19.1725 14.2063 19.2326 16.3872 19.2326Z" fill="#67666B"/>
</svg>
