<svg width="29" height="18" viewBox="0 0 29 18" fill="none" xmlns="http://www.w3.org/2000/svg">
<g clip-path="url(#clip0_22412_28103)">
<path d="M9.1954 0C12.0705 0 14.2891 2.20127 14.3117 5.09045C14.3344 8.02548 12.0931 10.3643 9.24068 10.3873C6.38822 10.3873 4.07909 8.02548 4.10173 5.13631C4.10173 2.24713 6.32031 0 9.1954 0ZM9.15013 0.733758C6.75044 0.756688 4.75825 2.77452 4.80352 5.2051C4.82616 7.61274 6.88627 9.6535 9.24068 9.63057C11.6177 9.60764 13.6099 7.54395 13.5873 5.11338C13.5873 2.6828 11.5951 0.733758 9.15013 0.733758Z" fill="black"/>
<path d="M19.7673 0.000175698C22.6424 -0.0227542 24.9063 2.20145 24.9289 5.06769C24.9516 7.97979 22.7103 10.3645 19.8579 10.3874C17.0733 10.4104 14.7416 8.11737 14.7189 5.27406C14.6963 2.29317 16.8696 0.0231056 19.7673 0.000175698ZM19.8126 0.733934C17.3903 0.733934 15.4207 2.72884 15.4207 5.15941C15.4207 7.58998 17.4582 9.63075 19.8126 9.63075C22.1897 9.63075 24.2271 7.56705 24.2271 5.15941C24.2271 2.72884 22.2349 0.733934 19.8126 0.733934Z" fill="black"/>
<path d="M9.80498 12.0835C7.17891 12.1523 5.23199 12.5192 3.48883 13.6198C2.10787 14.4912 1.02122 15.6147 0.817475 17.3803C0.772198 17.6784 0.794836 18.0682 0.364703 17.9995C-0.178622 17.9077 0.0477636 17.4721 0.0930407 17.174C0.319426 15.5689 1.17969 14.3536 2.44745 13.4135C6.09226 10.6848 12.2952 10.6619 15.94 13.3905C17.0493 14.216 17.9322 15.2708 18.2265 16.6924C18.2718 16.8759 18.4756 17.151 18.136 17.2657C17.8643 17.3574 17.6606 17.2657 17.5021 16.9447C15.7589 13.5281 13.2687 12.1065 9.80498 12.0835Z" fill="black"/>
<path d="M15.2344 12.3361C18.7886 10.3871 24.9916 11.4189 27.6177 14.3769C28.3874 15.2482 28.8401 16.2801 28.976 17.4495C28.9986 17.6559 29.0439 17.931 28.727 17.9998C28.3874 18.0686 28.2742 17.9081 28.2063 17.5641C27.5271 13.7807 24.6067 12.8176 21.46 12.2444C19.8074 11.9463 18.1095 12.0839 16.4569 12.6113C15.9814 12.7488 15.6192 12.6571 15.2344 12.3361Z" fill="black"/>
</g>
<defs>
<clipPath id="clip0_22412_28103">
<rect width="29" height="18" fill="white"/>
</clipPath>
</defs>
</svg>
