<svg width="23" height="21" viewBox="0 0 23 21" fill="none" xmlns="http://www.w3.org/2000/svg">
<path d="M11.5671 0C13.9074 0 16.2285 0 18.5688 0C21.2927 0.0186005 22.9808 1.65545 22.9808 4.31532C22.9808 7.0496 22.9808 9.76528 22.9808 12.4996C22.9808 15.2896 21.2544 17.1125 18.377 16.8893C14.8857 16.5917 11.9316 17.3915 9.32277 19.6422C8.78565 20.1072 8.11426 20.442 7.50042 20.8326C7.17431 21.0372 6.86739 21.1116 6.54128 20.8512C6.23436 20.6094 6.25354 20.3118 6.34946 20.0142C6.61801 19.1957 6.90575 18.3587 7.21268 17.5589C7.38532 17.0939 7.25104 16.9451 6.77148 16.9451C5.90826 16.9637 5.04504 16.9637 4.18182 16.9451C1.7648 16.8707 0.0191827 15.178 0 12.853C0 9.91408 0 6.9752 0.0191827 4.03632C0.0191827 1.69265 1.66889 0.0558016 4.10509 0.0372011C6.59883 0 9.09258 0.0372011 11.5863 0.0372011C11.5671 0.0186005 11.5671 0.0186005 11.5671 0ZM11.5288 5.18955C13.6772 5.18955 15.8065 5.18955 17.955 5.18955C18.4921 5.18955 19.0867 5.17095 19.1059 4.51993C19.1251 3.81311 18.5304 3.73871 17.955 3.73871C13.6964 3.73871 9.45705 3.73871 5.1985 3.73871C4.62302 3.73871 4.02836 3.77591 4.04754 4.51993C4.06672 5.20815 4.68057 5.18955 5.1985 5.18955C7.30859 5.18955 9.41868 5.18955 11.5288 5.18955ZM11.6055 9.15146C13.7348 9.15146 15.8832 9.15146 18.0125 9.15146C18.5496 9.15146 19.1251 9.13286 19.1059 8.44464C19.0867 7.83082 18.5688 7.79362 18.0509 7.79362C13.7348 7.79362 9.43787 7.79362 5.12177 7.79362C4.58465 7.79362 4.02836 7.79362 4.04754 8.51904C4.06672 9.18866 4.60384 9.15146 5.10259 9.15146C7.27023 9.15146 9.43787 9.15146 11.6055 9.15146ZM11.5288 13.2064C13.1018 13.2064 14.6555 13.225 16.2285 13.2064C16.7273 13.2064 17.2452 13.1134 17.2452 12.4996C17.2452 11.8671 16.7465 11.7927 16.2285 11.7927C13.1209 11.7927 10.0325 11.7927 6.92494 11.7927C6.36864 11.7927 5.81234 11.8671 5.85071 12.5368C5.86989 13.1506 6.40701 13.2064 6.92494 13.2064C8.45955 13.2064 9.99416 13.2064 11.5288 13.2064Z" fill="#67666B"/>
</svg>
