<svg width="16" height="16" viewBox="0 0 16 16" fill="none" xmlns="http://www.w3.org/2000/svg">
<path d="M0 10.7423C0 7.82979 0 4.90969 0 1.99716C0.128605 1.61891 0.249645 1.24066 0.514421 0.922931C0.915366 0.416076 1.46005 0.158865 2.06525 0C6.04444 0 10.0312 0 14.0104 0C14.3887 0.128605 14.7669 0.25721 15.0846 0.514421C15.5839 0.915366 15.8487 1.46005 16 2.06525C16 4.95508 16 7.85248 16 10.7423C15.9849 10.7574 15.9622 10.7801 15.9622 10.7953C15.6369 12.1191 14.7745 12.8 13.4203 12.8C12.4293 12.8 11.4307 12.8076 10.4397 12.7924C10.1749 12.7849 10.0463 12.8757 9.93286 13.1102C9.59243 13.8364 9.20662 14.5475 8.86619 15.2738C8.71489 15.5991 8.51064 15.8487 8.18534 16C8.04161 16 7.89787 16 7.7617 16C7.47423 15.8336 7.30024 15.5915 7.1565 15.2965C6.79338 14.54 6.40757 13.7986 6.04444 13.0421C5.95366 12.853 5.84019 12.7924 5.63593 12.7924C4.5617 12.8 3.48747 12.7924 2.40567 12.8C2.09551 12.8 1.79291 12.7395 1.513 12.6184C0.658156 12.2704 0.204255 11.6047 0 10.7423ZM7.99622 13.7608C8.28369 13.1783 8.56359 12.6563 8.79811 12.1191C9.02506 11.6047 9.38818 11.3929 9.95556 11.4005C11.2189 11.4232 12.4747 11.4156 13.7381 11.408C14.4946 11.4005 14.7518 11.1508 14.8199 10.4019C14.8274 10.2733 14.8274 10.1522 14.8274 10.0236C14.8274 7.48936 14.8274 4.95508 14.8274 2.4208C14.8274 1.45248 14.54 1.17258 13.5641 1.17258C9.84965 1.17258 6.12766 1.17258 2.41324 1.17258C1.49031 1.17258 1.18014 1.45248 1.18014 2.38298C1.17258 4.99291 1.17258 7.60284 1.18014 10.2128C1.18014 11.1433 1.46761 11.4156 2.41324 11.4156C3.62364 11.4156 4.83404 11.4383 6.04444 11.408C6.61939 11.3929 6.96738 11.6199 7.19433 12.1267C7.42884 12.6563 7.70875 13.1783 7.99622 13.7608Z" fill="#67666B"/>
<path d="M4.59177 7.13364C4.1303 7.13364 3.74449 6.76296 3.73692 6.30149C3.72936 5.83246 4.12274 5.44665 4.6069 5.45421C5.06837 5.46178 5.44662 5.84759 5.43905 6.30149C5.43905 6.77052 5.0608 7.13364 4.59177 7.13364Z" fill="#67666B"/>
<path d="M7.99631 7.13364C7.53485 7.13364 7.14903 6.75539 7.14903 6.30149C7.14147 5.83246 7.54241 5.44665 8.02657 5.45421C8.48804 5.46178 8.86629 5.84759 8.85116 6.30149C8.84359 6.77052 8.46534 7.14121 7.99631 7.13364Z" fill="#67666B"/>
<path d="M11.4082 7.13364C10.9467 7.13364 10.5609 6.76296 10.5533 6.30149C10.5458 5.83246 10.9391 5.44665 11.4233 5.45421C11.8848 5.46178 12.263 5.84003 12.2555 6.30149C12.2479 6.76296 11.8696 7.13364 11.4082 7.13364Z" fill="#67666B"/>
</svg>
