<?xml version="1.0" encoding="UTF-8" standalone="no"?>
<svg
   width="22"
   height="23"
   viewBox="0 0 22 23"
   fill="none"
   version="1.1"
   id="svg5"
   sodipodi:docname="message_icon.svg"
   inkscape:version="1.4 (e7c3feb1, 2024-10-09)"
   xmlns:inkscape="http://www.inkscape.org/namespaces/inkscape"
   xmlns:sodipodi="http://sodipodi.sourceforge.net/DTD/sodipodi-0.dtd"
   xmlns="http://www.w3.org/2000/svg"
   xmlns:svg="http://www.w3.org/2000/svg">
  <sodipodi:namedview
     id="namedview5"
     pagecolor="#ffffff"
     bordercolor="#000000"
     borderopacity="0.25"
     inkscape:showpageshadow="2"
     inkscape:pageopacity="0.0"
     inkscape:pagecheckerboard="0"
     inkscape:deskcolor="#d1d1d1"
     inkscape:zoom="17.434783"
     inkscape:cx="10.983791"
     inkscape:cy="12.84788"
     inkscape:window-width="1200"
     inkscape:window-height="951"
     inkscape:window-x="344"
     inkscape:window-y="25"
     inkscape:window-maximized="0"
     inkscape:current-layer="g5" />
  <g
     clip-path="url(#clip0_20169_335)"
     id="g5">
    <path
       style="fill:#67666b;stroke-miterlimit:10"
       d="m 1.7480469,1.2109375 c -0.96214935,0 -1.66796878,0.8083584 -1.66796878,1.6738281 v 0.00391 L 0.21484375,20.458984 c 0,0.670762 0.42038727,1.279298 0.96093745,1.53125 0.5405503,0.251953 1.241597,0.204948 1.7519532,-0.224609 L 6.3691406,18.945312 H 20.226562 c 0.962022,0 1.667969,-0.808371 1.667969,-1.673828 V 2.8847656 c 0,-0.9553092 -0.795298,-1.6738281 -1.667969,-1.6738281 z M 2.0742188,3.203125 H 19.900391 v 13.75 H 6.25 c -0.4699709,0 -0.7172005,0.174311 -0.8515625,0.242187 l -0.097656,0.04883 -3.0996093,2.541015 z M 6.25,18.945312 h 0.091797 l -0.044922,0.0293 c 0.1343972,-0.06789 0.1543369,-0.0293 -0.046875,-0.0293 z"
       id="path1"
       sodipodi:nodetypes="ssccsccssssscccscccccccc" />
    <path
       style="fill:#67666b;stroke-miterlimit:10"
       d="m 6.921875,7.1816406 v 1.9921875 h 8.398438 V 7.1816406 Z"
       id="path2"
       sodipodi:nodetypes="ccccc" />
    <path
       style="fill:#67666b;stroke-miterlimit:10"
       d="m 6.921875,10.710938 v 1.992187 h 8.398438 v -1.992187 z"
       id="path3"
       sodipodi:nodetypes="ccccc" />
  </g>
  <defs
     id="defs5">
    <clipPath
       id="clip0_20169_335">
      <rect
         width="22"
         height="23"
         fill="white"
         id="rect5" />
    </clipPath>
  </defs>
</svg>
