<svg width="20" height="18" viewBox="0 0 20 18" fill="none" xmlns="http://www.w3.org/2000/svg">
<path d="M8.66477 0.5C10.9186 0.5 13.1818 0.5 15.4356 0.5C16.6288 0.5 17.3201 1.16995 17.3201 2.33306C17.3201 4.08238 17.3295 5.841 17.3106 7.59031C17.3106 7.89737 17.4148 8.02764 17.6989 8.10208C18.3144 8.26026 18.9394 8.3254 19.5644 8.37192C19.8011 8.39053 19.9716 8.46497 19.9716 8.72551C19.9527 10.0096 20.0568 11.303 19.9242 12.5777C19.7727 14.0479 18.9962 15.1831 17.8693 16.1136C17.2064 16.6626 16.4489 17.0906 15.6439 17.4163C15.4735 17.4814 15.3125 17.5465 15.1042 17.4628C13.6269 16.8766 12.358 16.0205 11.4678 14.6899C11.0606 14.0851 10.786 13.4152 10.7292 12.708C10.6913 12.2986 10.5114 12.28 10.1894 12.28C7.46212 12.2893 4.73485 12.28 1.99811 12.28C0.625 12.2707 0 11.6658 0 10.3259C0 7.65545 0 4.99425 0 2.32375C0 1.17926 0.681818 0.5 1.84659 0.5C4.11932 0.5 6.39205 0.5 8.66477 0.5ZM6.04167 11.6472C7.44318 11.6472 8.85417 11.6379 10.2557 11.6565C10.5871 11.6565 10.6913 11.5542 10.6818 11.2378C10.6629 10.4748 10.6913 9.72113 10.6629 8.95813C10.6439 8.54871 10.7765 8.36262 11.2121 8.35331C12.2822 8.31609 13.3333 8.12069 14.2424 7.58101C14.9716 7.14368 15.6061 6.9855 16.3163 7.5717C16.5246 7.74849 16.6761 7.70197 16.6667 7.3763C16.6477 6.97619 16.6383 6.56678 16.6667 6.16667C16.6951 5.83169 16.6004 5.72003 16.2311 5.72003C11.1837 5.72934 6.12689 5.72934 1.07955 5.72003C0.757576 5.72003 0.643939 5.79447 0.653409 6.12945C0.672348 7.55309 0.662879 8.97674 0.662879 10.4004C0.662879 11.275 1.04167 11.6472 1.92235 11.6472C3.29545 11.6472 4.66856 11.6472 6.04167 11.6472ZM8.61742 2.46333C8.74053 2.46333 8.87311 2.46333 8.99621 2.46333C11.411 2.46333 13.8258 2.45402 16.2405 2.47263C16.6667 2.47263 16.714 2.30515 16.6477 1.97947C16.5341 1.4584 16.1269 1.15134 15.5019 1.15134C12.5758 1.15134 9.65909 1.15134 6.74242 1.15134C5.08523 1.15134 3.42803 1.15134 1.77083 1.15134C1.19318 1.15134 0.767045 1.48632 0.672348 1.98878C0.61553 2.31445 0.662879 2.48194 1.08902 2.48194C3.59848 2.45402 6.10795 2.46333 8.61742 2.46333ZM14.6686 14.2526C14.839 14.2247 14.9432 14.1037 15.0473 13.9921C15.5398 13.5082 16.0322 13.0337 16.5152 12.5498C16.9413 12.1311 17.3674 11.7217 17.7841 11.303C17.9451 11.1355 18.0777 10.9587 17.8598 10.7447C17.6326 10.5307 17.4621 10.6795 17.2917 10.8377C17.2159 10.9122 17.1307 10.9866 17.0549 11.0703C16.3163 11.7961 15.5777 12.5126 14.858 13.2384C14.6875 13.4059 14.5928 13.4245 14.4223 13.2384C14.072 12.8662 13.6932 12.5126 13.3239 12.1497C13.1629 11.9915 12.983 11.824 12.7652 12.0473C12.5663 12.2427 12.661 12.4382 12.8409 12.6056C13.3333 13.0802 13.8258 13.564 14.3182 14.0479C14.4129 14.1502 14.5076 14.2526 14.6686 14.2526Z" fill="black"/>
<path d="M3.98668 10.2977C3.48479 10.2977 2.97343 10.2884 2.47153 10.2977C2.1685 10.307 1.99805 10.1953 1.99805 9.86964C2.00752 9.07873 2.00752 8.28781 1.99805 7.4969C1.99805 7.18053 2.15903 7.05957 2.46206 7.05957C3.48479 7.06888 4.51699 7.05957 5.53971 7.05957C5.8238 7.05957 5.98479 7.15262 5.97532 7.46898C5.96585 8.27851 5.96585 9.07873 5.97532 9.88825C5.97532 10.1953 5.83327 10.307 5.54918 10.2977C5.02835 10.2977 4.50752 10.2977 3.98668 10.2977Z" fill="black"/>
</svg>
