<svg width="15" height="14" viewBox="0 0 15 14" fill="none" xmlns="http://www.w3.org/2000/svg">
<path d="M8.06686 0C8.77907 0.127001 9.49855 0.201708 10.189 0.440768C11.7442 0.978655 13.0669 1.85272 14.0189 3.24973C15.625 5.58805 15.2253 8.70331 13.0814 10.6158C11.4099 12.1099 9.43314 12.6926 7.25291 12.6553C6.38808 12.6403 5.54506 12.5059 4.7311 12.1921C4.57849 12.1323 4.45494 12.1772 4.31686 12.2369C3.07413 12.7823 1.82413 13.3127 0.581395 13.8506C0.479651 13.8954 0.385174 13.9328 0.210756 14.0075C0.356105 13.7236 0.465116 13.4995 0.581395 13.2828C1.01017 12.476 1.43895 11.6692 1.86773 10.8623C1.93314 10.7428 2.04942 10.6307 1.88953 10.4739C0.850291 9.47278 0.210756 8.25507 0.0145349 6.79829C0.0145349 6.77588 0.00726744 6.75347 0 6.72359C0 6.40235 0 6.07364 0 5.7524C0.130814 5.1921 0.218023 4.61686 0.465116 4.08645C1.32267 2.22625 2.79797 1.11313 4.65116 0.448239C5.3125 0.209178 6.01017 0.141942 6.68605 0C7.1439 0 7.60901 0 8.06686 0ZM2.31105 12.0576C2.98692 11.7663 3.58285 11.5272 4.16424 11.2508C4.44041 11.1163 4.6657 11.1313 4.94913 11.2284C7.49273 12.1174 9.89826 11.8036 12.0785 10.1974C14.6366 8.30736 14.7311 4.89328 12.3547 2.76414C11.1919 1.72572 9.83285 1.17289 8.31395 1.01601C6.11919 0.79936 4.12064 1.29989 2.47093 2.86126C1.30814 3.95944 0.748546 5.32657 1.01744 6.98506C1.23547 8.3223 1.96221 9.33084 2.97238 10.1451C3.18314 10.3095 3.20494 10.4216 3.06686 10.6531C2.8125 11.079 2.58721 11.5347 2.31105 12.0576Z" fill="black"/>
<path d="M10.7266 8.59122C10.574 8.43434 10.4432 8.2924 10.3051 8.15792C9.27314 7.12697 8.02314 6.95515 6.66412 7.18674C6.48971 7.21662 6.46064 7.32121 6.4679 7.47809C6.47517 7.85163 6.4679 8.21769 6.4679 8.59869C6.32982 8.6211 6.28622 8.50904 6.22808 8.44181C5.43593 7.62004 4.64378 6.79826 3.85162 5.96902C3.75715 5.8719 3.59726 5.78973 3.77895 5.6179C4.68011 4.73636 5.57401 3.84736 6.4679 2.96582C6.4679 3.26465 6.48244 3.63071 6.46064 3.99677C6.4461 4.25824 6.54058 4.32548 6.78767 4.34042C8.95337 4.48983 10.6249 6.23797 10.7484 8.45675C10.7557 8.48663 10.7412 8.51651 10.7266 8.59122Z" fill="black"/>
</svg>
