<svg width="22" height="20" viewBox="0 0 22 20" fill="none" xmlns="http://www.w3.org/2000/svg">
<path d="M22 5.81338C21.9778 7.6115 21.4339 9.00146 20.335 10.1598C20.1685 10.3363 20.002 10.5017 19.8355 10.6672C19.6024 10.8989 19.2472 11.1085 19.1695 11.3843C19.0918 11.7042 19.5469 11.8696 19.7356 12.1234C20.4793 13.0941 19.9798 14.4289 18.7588 14.6937C18.4369 14.7599 18.337 14.8592 18.2704 15.1901C18.1483 15.8851 17.6932 16.3263 16.9828 16.4587C16.7053 16.5139 16.561 16.558 16.5166 16.9C16.4056 17.6501 15.9172 18.1024 15.1624 18.2237C14.9182 18.2568 14.785 18.312 14.7628 18.6098C14.7073 19.2497 14.3188 19.702 13.7083 19.9005C13.1089 20.0991 12.5428 19.9888 12.0544 19.5585C12.0433 19.5475 12.0211 19.5365 12.01 19.5255C11.6548 19.018 11.3218 18.9849 10.9223 19.5144C10.6226 19.9005 10.1564 20.0219 9.67906 19.9998C8.93537 19.9667 8.33597 19.4703 8.21388 18.7312C8.14728 18.3892 8.01408 18.2568 7.66998 18.1907C6.95959 18.0583 6.51559 17.606 6.43789 16.8889C6.40459 16.5801 6.26029 16.5139 5.9939 16.4697C5.228 16.3153 4.73961 15.863 4.66191 15.0688C4.63971 14.8371 4.55091 14.7819 4.32891 14.7378C3.20782 14.5062 2.74163 13.8332 2.91922 12.708C2.95252 12.4764 2.88592 12.3771 2.75273 12.2337C2.30873 11.7924 1.85363 11.3622 1.44294 10.8878C-0.621644 8.48299 -0.455145 4.86467 1.80923 2.69148C4.14021 0.441066 7.75878 0.39694 10.1342 2.5922C10.445 2.87901 10.6115 2.90108 10.9001 2.58117C11.3107 2.12888 11.7436 1.69865 12.2209 1.33461C14.2078 -0.165663 16.3945 -0.419386 18.6256 0.661695C20.8345 1.73174 21.9001 3.59606 22 5.81338ZM0.743644 7.05993C0.776944 7.42397 0.799144 7.8211 0.887943 8.21823C1.20984 9.70747 2.25323 10.7003 3.29662 11.7042C3.51862 11.9138 3.61852 11.7042 3.74062 11.5828C4.25121 11.0754 4.75071 10.5569 5.2724 10.0715C5.7608 9.60819 6.36019 9.53097 6.98179 9.74057C7.57008 9.93914 7.93638 10.3914 7.99188 11.0092C8.02518 11.3291 8.13618 11.3843 8.41367 11.4284C9.17957 11.5497 9.65686 12.013 9.76786 12.7522C9.80116 13.0169 9.86776 13.1162 10.1453 13.1493C10.9556 13.2706 11.4439 13.756 11.5438 14.5613C11.5771 14.8371 11.6992 14.8592 11.9212 14.8923C12.4429 14.9695 12.9202 15.2011 13.0978 15.6975C13.3309 16.3263 13.8082 16.7124 14.2411 17.1427C14.6962 17.595 15.1624 17.617 15.5509 17.2309C15.9172 16.8669 15.895 16.3594 15.4621 15.9182C14.9182 15.3666 14.3632 14.8261 13.8193 14.2745C13.6195 14.0759 13.3864 13.8443 13.675 13.5795C13.9192 13.3478 14.1523 13.5354 14.341 13.734C14.8849 14.2855 15.4288 14.8371 15.9838 15.3666C16.4389 15.8079 16.9162 15.841 17.3047 15.4769C17.6932 15.1129 17.6599 14.5834 17.2048 14.1201C16.672 13.5795 16.1392 13.05 15.5953 12.5205C15.3955 12.3219 15.1513 12.0903 15.4288 11.8255C15.7063 11.5608 15.9283 11.8034 16.1281 12.002C16.672 12.5536 17.2159 13.1052 17.782 13.6347C18.226 14.0539 18.7477 14.0649 19.1029 13.6788C19.4692 13.2927 19.4137 12.7963 18.9475 12.3219C17.3602 10.7334 15.7507 9.1559 14.1745 7.55634C13.8859 7.2585 13.7305 7.29159 13.4197 7.52325C11.4883 9.05662 8.76887 8.94631 6.99289 7.35778C6.63769 7.03787 6.61549 6.79518 6.97069 6.4532C7.89198 5.57069 8.76887 4.65508 9.69016 3.77256C9.91216 3.56296 9.98986 3.43059 9.71236 3.17686C8.16948 1.73174 5.9051 1.32358 3.94041 2.15094C1.97573 2.98933 0.732544 4.88674 0.743644 7.05993ZM21.2341 5.90163C21.2341 5.80235 21.223 5.55965 21.2008 5.32799C21.1897 5.21768 21.1675 5.10737 21.1453 5.00808C20.6902 3.02242 19.5025 1.64349 17.5489 1.03676C15.5731 0.419003 13.7749 0.849229 12.2764 2.27228C10.7891 3.68431 9.35717 5.17355 7.88088 6.60764C7.58118 6.89446 7.71438 7.00477 7.96968 7.17024C9.05747 7.85419 10.2119 8.05276 11.4661 7.73285C12.5872 7.45706 13.3531 6.68486 14.119 5.91266C14.3188 5.71409 14.5408 5.40521 14.8516 5.72513C15.1291 6.01194 14.8738 6.2436 14.6629 6.40907C14.3299 6.6628 14.4298 6.82827 14.6851 7.08199C15.6952 8.05276 16.6831 9.04559 17.671 10.0384C18.5479 10.9099 18.5368 10.8989 19.447 10.0274C20.5681 8.93528 21.2563 7.6446 21.2341 5.90163ZM10.7891 14.804C10.778 14.3517 10.6004 14.087 10.2674 13.9435C9.91216 13.7891 9.57916 13.8553 9.30167 14.1311C8.66897 14.7488 8.03628 15.3666 7.42578 15.9954C7.02619 16.4146 7.03729 16.911 7.41468 17.264C7.76988 17.595 8.25828 17.606 8.65787 17.2309C9.30167 16.6242 9.91216 15.9954 10.5338 15.3666C10.7114 15.1901 10.8113 14.9695 10.7891 14.804ZM11.6659 15.6314C11.5216 15.6093 11.3329 15.6534 11.1997 15.7858C10.4894 16.4808 9.76786 17.1647 9.09077 17.8818C8.77997 18.2237 8.83547 18.6429 9.14627 18.9739C9.47926 19.3269 9.92326 19.4041 10.2896 19.0732C11.0222 18.4002 11.7214 17.6942 12.3985 16.9772C12.6316 16.7345 12.6205 16.4036 12.4651 16.0947C12.3097 15.8079 12.0655 15.6314 11.6659 15.6314ZM7.24819 11.296C7.27038 10.8768 7.09279 10.601 6.73759 10.4355C6.37129 10.259 6.0494 10.3473 5.7719 10.6121C5.1503 11.2078 4.53981 11.8255 3.92932 12.4322C3.49642 12.8625 3.48532 13.3809 3.86272 13.745C4.22901 14.087 4.72851 14.0759 5.1392 13.6788C5.7497 13.0941 6.33799 12.4874 6.93739 11.8917C7.13719 11.7152 7.25928 11.5277 7.24819 11.296ZM6.26029 15.7527C6.46009 15.7417 6.65989 15.6865 6.80419 15.5431C7.49238 14.8812 8.18058 14.2193 8.83547 13.5244C9.13517 13.2044 9.09077 12.6639 8.77997 12.3771C8.42477 12.0461 8.00298 11.9689 7.63668 12.3109C6.92629 12.9728 6.23809 13.6678 5.561 14.3627C5.3057 14.6275 5.3057 14.9695 5.4722 15.2894C5.6387 15.5762 5.9051 15.7306 6.26029 15.7527ZM14.0302 18.3892C14.0302 18.0914 13.5085 17.2861 13.2421 17.275C12.9535 17.253 12.9424 17.628 12.7315 17.7494C12.6538 17.7935 12.5983 17.8707 12.5317 17.9369C11.9434 18.5216 11.9545 18.6098 12.6538 19.0952C12.6871 19.1173 12.7093 19.1394 12.7426 19.1504C13.3309 19.4703 14.0302 19.0621 14.0302 18.3892Z" fill="black"/>
</svg>
