<svg width="20" height="20" viewBox="0 0 20 20" fill="none" xmlns="http://www.w3.org/2000/svg">
<path d="M9.31597 18.092C9.1205 17.8467 8.94849 17.6306 8.78039 17.4183C8.63184 17.2278 8.64357 17.0521 8.81557 16.9386C8.97586 16.8287 9.15959 16.8653 9.30424 17.0448C9.6248 17.4366 9.93754 17.832 10.2542 18.2311C10.3637 18.3703 10.3597 18.5131 10.2503 18.6522C9.93363 19.0477 9.62089 19.4432 9.30033 19.8386C9.15568 20.0144 8.97195 20.0473 8.81166 19.9338C8.65138 19.8203 8.63575 19.6482 8.77648 19.4651C8.96413 19.2271 9.15177 18.9891 9.35897 18.7291C8.79212 18.6852 8.25654 18.6193 7.7327 18.5021C5.03137 17.8906 2.94771 16.4699 1.47781 14.2729C0.41448 12.6837 -0.0585458 10.9335 0.00400304 9.06601C0.156466 4.7306 3.42855 1.02866 7.97507 0.204782C11.9117 -0.50558 15.2307 0.629535 17.8109 3.51493C19.1518 5.01621 19.8672 6.78479 19.9845 8.74012C20.1643 11.7354 19.0736 14.2656 16.7319 16.3088C15.4497 17.4256 13.9289 18.1506 12.2167 18.5131C11.9899 18.5607 11.8179 18.4765 11.771 18.3007C11.7241 18.1176 11.8414 17.9638 12.0798 17.9126C13.5888 17.5904 14.9297 16.9569 16.0908 16.0049C17.7992 14.6061 18.8781 12.8631 19.23 10.7577C19.6717 8.11397 18.9563 5.74488 17.115 3.70167C15.5787 2.00266 13.6084 0.995701 11.2433 0.695445C6.31362 0.076624 1.73973 3.18537 0.817138 7.7771C-0.125004 12.4677 3.17836 17.0301 8.1979 17.9675C8.55365 18.0334 8.91331 18.092 9.31597 18.092Z" fill="black"/>
<path d="M7.23591 12.1455C7.03654 11.4608 6.84498 10.809 6.65343 10.1572C6.43841 9.41025 6.2234 8.66327 6.00448 7.91995C5.97712 7.82475 5.98884 7.7625 6.0553 7.68927C6.50487 7.20959 7.04827 6.85441 7.67375 6.60175C7.7793 6.55781 7.81449 6.58345 7.84185 6.68231C8.20151 7.9346 8.56508 9.18323 8.93255 10.4319C8.94819 10.4904 8.95601 10.5344 8.90518 10.582C8.35788 11.0946 7.81058 11.6072 7.23591 12.1455Z" fill="black"/>
<path d="M7.72461 12.5774C8.28364 12.0538 8.83485 11.5448 9.38215 11.0322C9.43297 10.9846 9.47598 10.9883 9.53853 11.0029C10.8794 11.3471 12.2203 11.6913 13.5612 12.0318C13.6824 12.0611 13.6668 12.1051 13.6316 12.182C13.3618 12.7751 12.9787 13.2878 12.4549 13.7125C12.3962 13.7601 12.3454 13.7858 12.2633 13.7638C10.7739 13.3793 9.28051 12.9985 7.79107 12.614C7.77934 12.6067 7.76761 12.5994 7.72461 12.5774Z" fill="black"/>
<path d="M9.96875 10.4498C10.2033 10.241 10.4183 10.0543 10.6255 9.8639C11.0594 9.46111 11.4934 9.05467 11.9234 8.64456C12.0094 8.56034 12.0837 8.53105 12.2088 8.56401C12.8577 8.7361 13.5106 8.90454 14.1634 9.06565C14.2846 9.09495 14.312 9.13522 14.2885 9.2524C14.1595 9.92248 14.0383 10.5962 13.9171 11.27C13.9015 11.3652 13.8976 11.4604 13.7334 11.4201C12.5176 11.1052 11.3018 10.794 10.086 10.4827C10.0665 10.4791 10.043 10.4717 9.96875 10.4498Z" fill="black"/>
<path d="M9.51144 10.0109C9.24169 9.08081 8.97977 8.18004 8.71394 7.27561C8.63966 7.01564 8.56538 6.75932 8.48329 6.503C8.45201 6.40414 8.48329 6.3602 8.58493 6.34555C9.33943 6.22472 10.0978 6.10388 10.8523 5.97938C10.9422 5.96474 10.9657 6.00868 10.9852 6.07459C11.169 6.71538 11.3527 7.35617 11.5404 7.99696C11.5599 8.06287 11.5521 8.10681 11.4974 8.15807C10.8445 8.76225 10.1917 9.37741 9.51144 10.0109Z" fill="black"/>
<path d="M5.47297 8.50586C5.62934 9.04779 5.7779 9.54943 5.92254 10.0547C6.16101 10.8713 6.39557 11.6878 6.64185 12.5007C6.67704 12.6216 6.65749 12.7021 6.55585 12.7863C6.39948 12.9182 6.25874 13.0573 6.1141 13.2001C6.05546 13.2587 6.01245 13.2807 5.946 13.2038C4.75757 11.8563 4.61292 10.0108 5.47297 8.50586Z" fill="black"/>
<path d="M11.6069 14.2544C10.8016 14.6389 9.98451 14.811 9.12055 14.7524C8.18623 14.6901 7.35355 14.3752 6.6186 13.8223C6.52478 13.7528 6.49741 13.7052 6.60296 13.6319C6.61469 13.6246 6.62251 13.6136 6.63033 13.6063C6.80625 13.4452 6.95871 13.1962 7.1659 13.1449C7.3731 13.0937 7.63502 13.2328 7.87349 13.2914C9.03846 13.588 10.2073 13.8846 11.3723 14.1848C11.4388 14.1995 11.4974 14.2214 11.6069 14.2544Z" fill="black"/>
<path d="M14.3822 5.41211C13.6121 6.13346 12.8693 6.82917 12.1148 7.53587C11.9976 7.14408 11.8803 6.74862 11.763 6.34949C11.7278 6.225 11.6926 6.1005 11.6535 5.97967C11.6301 5.90277 11.634 5.85151 11.7317 5.83686C12.6152 5.69772 13.4909 5.55491 14.3822 5.41211Z" fill="black"/>
<path d="M14.8982 5.93555C14.8044 6.4555 14.7028 6.99743 14.605 7.53569C14.5581 7.79201 14.5073 8.05199 14.4643 8.3083C14.4448 8.4328 14.4096 8.48406 14.2532 8.44012C13.7176 8.29366 13.1781 8.16184 12.6504 8.02636C13.401 7.33064 14.1516 6.63492 14.8982 5.93555Z" fill="black"/>
<path d="M4.9063 15.0818C4.7812 15.0745 4.67174 15.0269 4.6131 14.9097C4.55446 14.7999 4.55446 14.679 4.64829 14.5875C4.92194 14.3202 5.20341 14.0602 5.48488 13.7966C5.53179 13.7526 5.57088 13.749 5.61389 13.8002C5.61779 13.8039 5.6217 13.8076 5.62952 13.8112C6.03609 14.1517 6.03609 14.1517 5.65298 14.5106C5.4927 14.6607 5.33242 14.8108 5.17213 14.961C5.09786 15.0342 5.01967 15.0781 4.9063 15.0818Z" fill="black"/>
</svg>
