<svg width="30" height="30" viewBox="0 0 30 30" fill="none" xmlns="http://www.w3.org/2000/svg">
<path d="M12.354 22.354C6.84 22.354 2.354 17.868 2.354 12.354C2.354 6.84 6.84 2.354 12.354 2.354C17.868 2.354 22.354 6.84 22.354 12.354C22.354 17.868 17.868 22.354 12.354 22.354ZM12.354 4.354C7.943 4.354 4.354 7.943 4.354 12.354C4.354 16.765 7.943 20.354 12.354 20.354C16.765 20.354 20.354 16.765 20.354 12.354C20.354 7.943 16.766 4.354 12.354 4.354Z" fill="#33496C"/>
<path d="M26.646 27.646C26.5147 27.6461 26.3846 27.6203 26.2633 27.57C26.1419 27.5198 26.0317 27.446 25.939 27.353L18.245 19.659C18.1522 19.5662 18.0785 19.4559 18.0283 19.3346C17.978 19.2133 17.9521 19.0833 17.9521 18.952C17.9521 18.8207 17.978 18.6907 18.0283 18.5694C18.0785 18.4481 18.1522 18.3378 18.245 18.245C18.3378 18.1522 18.4481 18.0785 18.5694 18.0283C18.6907 17.978 18.8207 17.9521 18.952 17.9521C19.0833 17.9521 19.2133 17.978 19.3346 18.0283C19.4559 18.0785 19.5662 18.1522 19.659 18.245L27.353 25.939C27.4933 26.0787 27.5889 26.2569 27.6278 26.451C27.6666 26.6451 27.6469 26.8464 27.5712 27.0293C27.4954 27.2122 27.367 27.3684 27.2023 27.4782C27.0376 27.588 26.844 27.6464 26.646 27.646Z" fill="#33496C"/>
</svg>
