<svg width="21" height="21" viewBox="0 0 21 21" fill="none" xmlns="http://www.w3.org/2000/svg">
<path d="M13.1567 20.9995C12.6277 20.9421 12.1907 20.6434 11.9492 20.092C11.4087 18.8857 10.8796 17.691 10.3391 16.4848C9.79858 15.267 9.24655 14.0493 8.71752 12.8316C8.59102 12.5214 8.37251 12.3721 8.085 12.2457C5.73888 11.2118 3.41577 10.1664 1.06966 9.13247C0.42563 8.85676 -0.0343919 8.4317 0.000109737 7.71945C0.0346114 6.99571 0.494633 6.59363 1.19617 6.35238C5.77338 4.77853 10.3506 3.17021 14.9278 1.57339C16.2734 1.10238 17.6304 0.642862 18.976 0.137391C19.597 -0.0923681 20.1376 -0.0579042 20.6091 0.42459C21.0576 0.884109 21.0921 1.40107 20.8736 2.00993C18.7805 7.94921 16.6989 13.8885 14.6058 19.8278C14.3298 20.6204 13.8698 20.9995 13.1567 20.9995ZM1.9897 7.78838C4.27831 8.79932 6.40591 9.74133 8.53352 10.7063C8.86703 10.8557 9.06254 10.8212 9.31555 10.557C10.1896 9.64943 11.0981 8.76485 11.9952 7.88028C12.4092 7.46671 12.8692 7.44374 13.1912 7.77689C13.5708 8.15599 13.5363 8.56956 13.0877 9.01759C12.1792 9.92514 11.2821 10.8327 10.3621 11.7287C10.1551 11.924 10.1091 12.0734 10.2356 12.3606C10.7876 13.5324 11.2936 14.7271 11.8112 15.9104C12.2482 16.8983 12.6967 17.8748 13.2027 18.9777C15.2268 13.1877 17.2164 7.53564 19.2405 1.74571C13.4557 3.77908 7.79748 5.75501 1.9897 7.78838Z" fill="#F15925"/>
</svg>
