<svg width="17" height="17" viewBox="0 0 17 17" fill="none" xmlns="http://www.w3.org/2000/svg">
<path d="M7.48 0C8.16 0 8.84 0 9.52 0C10.0716 0.211556 10.3587 0.596889 10.3738 1.20133C10.3813 1.45067 10.4569 1.7 10.472 1.94933C10.4796 2.19867 10.6231 2.28178 10.8271 2.40267C11.3484 2.72 11.7564 2.59911 12.1342 2.18356C12.2324 2.07778 12.3684 1.99467 12.4893 1.904C12.9956 1.51867 13.532 1.54889 13.9853 1.97956C14.3404 2.31956 14.688 2.66711 15.028 3.02222C15.4662 3.47556 15.4889 4.012 15.1036 4.51822C14.8996 4.79022 14.688 5.05467 14.484 5.32667C14.4236 5.40222 14.348 5.47022 14.3631 5.59111C14.4538 6.19556 14.8089 6.528 15.4284 6.58089C15.4511 6.58089 15.4813 6.58089 15.504 6.58089C16.1462 6.64133 16.7658 6.74711 17 7.48756C17 8.16756 17 8.84756 17 9.52756C16.7884 10.0791 16.4031 10.3662 15.7987 10.3813C15.5493 10.3889 15.3 10.4644 15.0507 10.4796C14.8013 10.4871 14.7182 10.6307 14.5973 10.8347C14.28 11.3636 14.4084 11.764 14.8164 12.1418C14.9222 12.2476 15.0053 12.376 15.096 12.4969C15.4813 13.0031 15.4511 13.5396 15.0204 13.9929C14.6804 14.348 14.3329 14.6956 13.9778 15.0356C13.5244 15.4738 12.988 15.4964 12.4818 15.1111C12.2098 14.9071 11.9453 14.6956 11.6733 14.4916C11.5978 14.4311 11.5298 14.3556 11.4089 14.3782C10.8044 14.4689 10.472 14.8164 10.4191 15.4436C10.4116 15.572 10.3662 15.6929 10.3662 15.8138C10.3587 16.4107 10.0716 16.8036 9.51244 17.0151C8.83244 17.0151 8.15244 17.0151 7.47244 17.0151C7.13244 16.864 6.81511 16.6902 6.70933 16.2973C6.64889 16.0556 6.56578 15.7987 6.58089 15.5569C6.61111 14.9524 6.36933 14.62 5.78 14.4538C5.55333 14.3933 5.41733 14.3858 5.24356 14.5293C4.98667 14.7484 4.71467 14.96 4.44267 15.1564C3.98933 15.4889 3.44533 15.4511 3.03733 15.0582C2.67467 14.7107 2.31956 14.3556 1.972 13.9929C1.53378 13.5396 1.51111 13.0107 1.89644 12.4969C2.10044 12.2249 2.312 11.9604 2.516 11.6884C2.57644 11.6129 2.652 11.5449 2.63689 11.424C2.54622 10.8196 2.19867 10.4871 1.57156 10.4342C1.44311 10.4191 1.32222 10.3813 1.20133 10.3813C0.596889 10.3662 0.204 10.0716 0 9.52C0 8.84 0 8.16 0 7.48C0.204 6.92845 0.596889 6.64133 1.20133 6.62622C1.45067 6.61867 1.7 6.54311 1.94933 6.528C2.19867 6.52045 2.28178 6.37689 2.40267 6.17289C2.72 5.644 2.59156 5.24356 2.18356 4.86578C2.07778 4.76756 1.99467 4.63156 1.904 4.51067C1.51867 4.00445 1.54889 3.468 1.97956 3.01467C2.31956 2.65956 2.66711 2.312 3.02222 1.972C3.46044 1.54889 3.99689 1.51111 4.488 1.87378C4.76756 2.08533 5.04711 2.30444 5.32667 2.516C5.40222 2.57644 5.47022 2.652 5.59111 2.63689C6.19556 2.54622 6.528 2.19867 6.58089 1.57156C6.58844 1.44311 6.63378 1.32222 6.63378 1.20133C6.63378 0.596889 6.92844 0.211556 7.48 0ZM8.50756 4.964C6.54311 4.95644 4.95644 6.54311 4.964 8.50756C4.964 10.4644 6.52044 12.0209 8.47733 12.0436C10.4342 12.0662 12.0284 10.4947 12.0436 8.52267C12.0511 6.55067 10.472 4.964 8.50756 4.964Z" fill="#F15925"/>
</svg>
