<svg width="17" height="16" viewBox="0 0 17 16" fill="none" xmlns="http://www.w3.org/2000/svg">
<path d="M10.2684 9.4318C10.2684 9.17522 10.2684 8.91865 10.2684 8.66207C10.2684 8.0463 10.2684 8.0463 9.65547 8.2105C7.08337 8.8776 5.12415 10.4068 3.70748 12.6646C3.56682 12.8802 3.46634 13.147 3.14483 13.0752C2.79318 12.9931 2.82332 12.6954 2.81327 12.4183C2.75299 11.0944 2.83337 9.791 3.27545 8.52866C4.20984 5.90133 6.14897 4.46451 8.68088 3.72558C9.09282 3.60242 9.52486 3.49979 9.94684 3.43821C10.2181 3.40742 10.2684 3.28427 10.2684 3.04822C10.2583 2.25797 10.2684 1.47798 10.2684 0.687732C10.2684 0.431157 10.2382 0.154056 10.5296 0.0309002C10.7908 -0.0819927 10.9616 0.102741 11.1525 0.256686C12.9811 1.85771 14.8198 3.44848 16.6484 5.0495C17.1206 5.46002 17.1206 5.59344 16.6383 6.00396C14.7997 7.61525 12.951 9.21628 11.1023 10.8276C10.9315 10.9815 10.7607 11.1252 10.5195 11.0123C10.2784 10.9097 10.2583 10.6839 10.2583 10.4478C10.2684 10.1194 10.2684 9.78074 10.2684 9.4318Z" fill="black"/>
<path d="M7.12352 15.9997C5.94799 15.9997 4.78251 16.0099 3.60697 15.9997C1.37648 15.9791 0 14.5526 0 12.2639C0 9.85214 0 7.44034 0 5.02854C0 2.96567 1.4669 1.46728 3.47636 1.46728C5.20449 1.46728 6.92258 1.46728 8.65071 1.46728C8.95213 1.46728 9.31383 1.43649 9.32388 1.86753C9.33393 2.29858 8.98227 2.29858 8.6708 2.28832C6.93262 2.28832 5.19444 2.28832 3.44622 2.28832C1.92908 2.28832 0.81383 3.41725 0.81383 4.96696C0.803783 7.47113 0.803783 9.96503 0.803783 12.4589C0.803783 13.9984 1.85875 15.1581 3.35579 15.1786C5.84752 15.2197 8.33924 15.2094 10.841 15.1786C12.3582 15.1581 13.4131 14.0087 13.4433 12.4384C13.4533 11.6892 13.4533 10.9298 13.4433 10.1806C13.4433 9.89319 13.4835 9.62635 13.805 9.61609C14.1466 9.60583 14.237 9.87267 14.227 10.1806C14.2169 11.1042 14.247 12.0279 14.1767 12.9516C14.0561 14.5526 12.76 15.8252 11.1927 15.9689C11.0721 15.9791 10.9616 15.9894 10.841 15.9894C9.6052 15.9997 8.36939 15.9894 7.12352 15.9997Z" fill="black"/>
</svg>
