<svg width="39" height="43" viewBox="0 0 39 43" fill="none" xmlns="http://www.w3.org/2000/svg">
<path d="M27.1232 10.7977C24.7647 12.1978 22.1535 12.2191 19.6686 12.6857C17.0363 13.1949 14.762 14.3192 13.0142 16.4193C12.6772 16.8224 12.2982 17.2255 11.7928 16.78C11.2663 16.3133 11.5611 15.8466 11.9402 15.4011C14.2145 12.6645 17.2469 11.4766 20.6583 11.0099C21.627 10.8826 22.5957 10.7553 23.5644 10.5644C24.9542 10.2886 26.2598 9.82191 27.2496 8.69759C27.4812 8.44303 27.755 8.16725 28.1551 8.35817C28.5131 8.52788 28.6815 8.82487 28.6605 9.20672C28.5763 12.6645 28.8921 16.1436 28.492 19.5802C28.1972 22.0197 26.9126 23.9078 25.0385 25.4351C24.6594 25.7321 23.9645 25.8806 24.3435 26.6231C24.7647 27.408 24.8279 28.5535 26.1335 28.5111C27.2285 28.4899 28.3236 28.4475 29.3765 28.7232C34.5358 30.0385 37.2102 33.7297 38.5579 38.63C38.8527 39.6907 38.9791 40.7726 39.0212 41.8757C39.0633 42.703 38.6632 43.0424 37.884 43.0212C37.7156 43.0212 37.526 43.0212 37.3576 43.0212C25.4596 43.0212 13.5617 43.0212 1.66373 43.0212C0.0632935 43.0212 -0.0841148 42.8939 0.0422351 41.2393C0.337052 37.8451 1.4742 34.7691 3.76956 32.2235C6.08597 29.6354 8.99202 28.3838 12.4666 28.4899C13.6459 28.5323 14.7199 27.4716 14.7831 26.3049C14.8041 25.8806 14.4882 25.7958 14.2355 25.6261C13.0984 24.8199 12.2139 23.8017 11.519 22.5713C11.2453 22.0834 10.9504 21.5743 11.6032 21.2136C12.235 20.853 12.5298 21.3621 12.8246 21.8288C15.0147 25.52 19.1842 26.8352 22.8905 24.9896C25.3333 23.7805 26.8495 21.744 27.0811 19.0286C27.2917 16.3345 27.1232 13.6191 27.1232 10.7977ZM33.0827 41.5151C33.9882 41.5151 34.9148 41.5151 35.8203 41.5151C37.5682 41.5151 37.5681 41.5151 37.2733 39.7755C36.2836 33.666 31.9877 29.9324 25.9018 29.9748C24.87 29.9748 24.2382 29.6354 23.7539 28.7869C23.5012 28.3626 23.2274 27.9383 23.08 27.4716C22.8694 26.8352 22.6167 26.6867 21.9429 26.8989C20.3425 27.4292 18.6999 27.4292 17.0784 26.9201C16.4467 26.7292 16.0887 26.7716 15.857 27.4716C15.2674 29.2112 14.2355 30.1233 12.1718 29.9748C9.32895 29.7415 6.9283 30.9507 4.96988 33.0508C2.94828 35.257 1.93748 37.9087 1.53738 40.8362C1.4742 41.3453 1.64267 41.5151 2.14807 41.5151C4.67506 41.4938 7.20206 41.4938 9.72906 41.5151C10.2976 41.5151 10.4661 41.2817 10.445 40.7514C10.424 40.0513 10.445 39.3301 10.445 38.63C10.445 38.1209 10.5925 37.6966 11.2031 37.7178C11.7717 37.739 11.877 38.1421 11.877 38.6088C11.877 39.2452 11.9191 39.8816 11.877 40.518C11.8138 41.3029 12.0876 41.5363 12.8878 41.5363C16.8889 41.4938 20.89 41.5151 24.891 41.5151C27.1232 41.5151 27.1232 41.5151 27.1232 39.224C27.1232 39.0118 27.1232 38.7997 27.1232 38.5876C27.1443 38.1209 27.2706 37.739 27.8182 37.7178C28.3657 37.7178 28.5341 38.0784 28.5552 38.5664C28.5763 39.3088 28.5763 40.0513 28.5552 40.7938C28.5341 41.3453 28.7447 41.5363 29.2922 41.5363C30.5557 41.4938 31.8192 41.5151 33.0827 41.5151Z" fill="black"/>
<path d="M9.75005 19.262C9.70794 19.5165 9.66582 19.7499 9.60264 20.0045C9.32889 21.2348 8.48655 21.9349 7.30729 21.9137C6.17014 21.8925 5.20146 21.0863 5.13828 19.8772C5.05405 18.0528 5.09617 16.2072 5.11722 14.3616C5.13828 13.8313 5.30675 13.2373 5.77003 12.9615C6.57025 12.4948 6.67554 11.7948 6.80189 10.9675C7.81269 4.64579 13.2668 -0.0212026 19.5211 1.09919e-05C25.8175 0.0212246 31.2506 4.73065 32.1772 10.9887C32.3035 11.7948 32.3877 12.4312 33.1669 12.9191C33.7565 13.2797 33.8829 14.0222 33.9039 14.7223C33.9039 16.2709 33.925 17.8407 33.9039 19.3893C33.8829 20.9166 32.9774 21.8925 31.6507 21.9137C30.303 21.9349 29.3975 20.9803 29.3553 19.4317C29.3343 17.8831 29.3553 16.3133 29.3553 14.7647C29.3553 14.0222 29.4817 13.2585 30.1134 12.8767C30.9137 12.41 30.8505 11.7948 30.7452 11.0735C30.0503 6.49138 26.1334 2.482 21.6059 1.6971C15.3937 0.636419 9.729 4.47608 8.3602 10.6705C8.17068 11.5402 8.02327 12.3039 8.9709 12.9615C9.77111 13.5131 9.77111 14.5313 9.64476 15.4011C9.43418 16.8648 10.0028 17.7558 11.2873 18.4134C12.9509 19.262 14.5724 20.1529 16.3834 20.5984C16.6782 20.6621 16.9731 20.853 17.2258 20.5136C18.1734 19.2408 19.5211 19.6862 20.7214 19.7711C21.5427 19.8347 22.1323 20.8318 22.0902 21.6803C22.0271 22.6349 21.3321 23.4411 20.3424 23.4835C19.1421 23.5471 17.8364 23.8017 17.0573 22.4228C16.9941 22.3167 16.8256 22.2531 16.6993 22.2319C15.4779 21.9349 14.2565 21.5955 13.1194 21.0227C12.0244 20.4499 10.9083 19.856 9.75005 19.262ZM8.19174 17.0982C8.19174 16.2921 8.2128 15.4647 8.19174 14.6586C8.17068 14.1495 7.9601 13.7464 7.39152 13.7464C6.82295 13.7464 6.59131 14.1495 6.59131 14.6586C6.57025 16.2496 6.59131 17.8407 6.59131 19.4317C6.59131 19.962 6.82295 20.3651 7.34941 20.3863C7.93904 20.4075 8.2128 19.9832 8.2128 19.4105C8.2128 18.668 8.2128 17.8831 8.19174 17.0982ZM32.4299 17.077C32.4299 16.3345 32.4299 15.592 32.4299 14.8495C32.4299 14.2556 32.3035 13.7464 31.5875 13.7676C30.9558 13.7889 30.8084 14.2556 30.8084 14.8071C30.8084 16.3345 30.8084 17.8407 30.8084 19.368C30.8084 19.9408 30.9979 20.4075 31.6086 20.4075C32.2825 20.4075 32.4509 19.9196 32.4509 19.3044C32.4088 18.5619 32.4299 17.8195 32.4299 17.077ZM19.5211 22.0197C19.9212 21.9561 20.5319 22.1895 20.553 21.6167C20.574 20.9166 19.9002 21.15 19.5211 21.1712C19.121 21.1712 18.4471 20.9166 18.4471 21.5955C18.4682 22.2531 19.1421 21.9349 19.5211 22.0197Z" fill="black"/>
</svg>
