<svg width="15" height="15" viewBox="0 0 15 15" fill="none" xmlns="http://www.w3.org/2000/svg">
<path d="M14.0798 5.35417C14.0313 5.19738 13.902 5.08312 13.7464 5.05945L9.37534 4.39357L7.42047 0.241377C7.35091 0.0935657 7.20729 0 7.05007 0C6.89282 0 6.74923 0.0935657 6.67964 0.241377L4.72469 4.39357L0.353682 5.05945C0.198113 5.08312 0.0688167 5.19738 0.0202376 5.35415C-0.0283689 5.51094 0.0121687 5.68303 0.124776 5.79807L3.28759 9.03011L2.54106 13.5939C2.51446 13.7563 2.57818 13.9205 2.70539 14.0174C2.77735 14.0722 2.86258 14.1001 2.94823 14.1001C3.01399 14.1001 3.07997 14.0837 3.14039 14.0504L7.05004 11.8956L10.9595 14.0503C11.0987 14.127 11.2674 14.1143 11.3946 14.0174C11.5218 13.9205 11.5855 13.7563 11.5589 13.5938L10.8122 9.03011L13.9753 5.79804C14.0879 5.68303 14.1285 5.51093 14.0798 5.35417Z" fill="#FFCC00"/>
</svg>
