<svg width="17" height="14" viewBox="0 0 17 14" fill="none" xmlns="http://www.w3.org/2000/svg">
<path d="M7.47281 11.5153C7.53235 10.7675 7.29417 10.2786 6.60941 10.0485C6.13305 9.87592 5.89488 9.50203 5.8651 9.01309C5.83533 8.55291 5.83533 8.09274 5.8651 7.63256C5.89488 7.14362 6.13305 6.74097 6.63918 6.62592C7.32395 6.45336 7.50258 5.9069 7.41326 5.36044C7.32395 4.75645 7.50258 4.3538 8.03848 4.03743C8.4553 3.77858 8.87211 3.57725 9.31869 3.37592C9.7355 3.20336 10.063 3.26088 10.4203 3.49097C11.1943 4.00867 11.4325 4.00867 12.2364 3.46221C12.5341 3.26088 12.8318 3.20336 13.1593 3.3184C13.8143 3.54849 14.38 3.8361 14.9159 4.26752C15.1838 4.4976 15.3625 4.72769 15.3029 5.10159C15.2136 5.84937 15.422 6.42459 16.2556 6.71221C16.6129 6.82725 16.7915 7.14362 16.8511 7.51751C16.9404 7.97769 17.0595 8.43787 17.0297 8.92681C16.9702 9.47327 16.7022 9.84716 16.1961 10.0485C15.6304 10.2786 15.3327 10.6237 15.422 11.2277C15.5411 12.0042 15.1838 12.4644 14.5289 12.8096C14.2907 12.9246 14.0823 13.0396 13.8739 13.1547C13.2784 13.4998 12.7127 13.5286 12.1471 13.0684C11.7005 12.7233 11.2539 12.752 10.7775 13.0972C10.3012 13.4711 9.82482 13.4998 9.28892 13.241C8.87211 13.0396 8.42552 12.8096 8.03848 12.5507C7.62167 12.2343 7.35372 11.918 7.47281 11.5153ZM6.87736 8.29406C6.84759 8.89805 6.90713 9.41575 7.62167 9.67459C8.18734 9.87592 8.36598 10.4511 8.30643 10.9976C8.27666 11.5441 8.48507 11.8317 8.93165 12.0618C9.11029 12.148 9.28892 12.2343 9.43778 12.3494C9.73551 12.5507 10.0035 12.5219 10.3012 12.3206C10.9859 11.8892 11.6707 11.8317 12.3555 12.2919C12.7127 12.5219 13.0105 12.5219 13.338 12.3206C13.5166 12.2343 13.6655 12.1193 13.8441 12.0618C14.3204 11.8317 14.5289 11.5153 14.4991 10.9401C14.4395 10.2211 14.7968 9.76088 15.5113 9.47327C15.6602 9.41575 15.8388 9.35822 15.8388 9.21442C15.8388 8.783 16.0472 8.35159 15.9877 7.89141C15.9579 7.48875 15.8091 7.25867 15.4518 7.0861C14.7968 6.82725 14.4991 6.28079 14.5586 5.61928C14.5884 5.13035 14.38 4.81398 13.9632 4.61265C13.7845 4.52636 13.6059 4.41132 13.4273 4.32504C13.07 4.15247 12.7723 4.15247 12.4448 4.38256C11.8196 4.78521 11.105 4.81398 10.45 4.38256C10.0928 4.15247 9.76528 4.12371 9.40801 4.3538C9.22938 4.46884 9.05074 4.55513 8.87211 4.64141C8.42552 4.8715 8.24689 5.18787 8.27666 5.70557C8.33621 6.39583 7.97894 6.91353 7.35372 7.14362C6.99645 7.25867 6.87736 7.45999 6.90713 7.77636C6.90713 7.94893 6.87736 8.1215 6.87736 8.29406Z" fill="black"/>
<path d="M5.41862 13.4709C3.98955 13.5572 2.70934 13.2983 1.63754 12.378C0.26801 11.1988 -0.267892 9.70317 0.119149 7.94875C0.476417 6.28061 1.57799 5.15893 3.27502 4.64123C3.48342 4.58371 3.66206 4.49742 3.78115 4.26733C5.41862 1.01733 9.02108 -0.334435 12.5044 0.988574C12.8617 1.13238 13.219 1.21866 13.5167 1.44875C13.7549 1.62132 14.0228 1.76512 13.8144 2.11026C13.6358 2.42663 13.3678 2.39787 13.0701 2.28282C12.4151 2.02397 11.7304 1.76512 11.0158 1.65008C8.36608 1.1899 5.80566 2.54167 4.76363 4.9576C4.61477 5.33149 4.40636 5.50406 3.98955 5.59034C2.3223 5.90672 1.04209 7.43105 1.13141 9.07043C1.2505 11.1988 3.27502 12.608 4.70409 12.4642C5.29953 12.4067 5.89498 12.4642 6.49043 12.4642C6.78815 12.4642 7.02633 12.5218 7.0561 12.8957C7.08587 13.2695 6.87747 13.4421 6.54997 13.4709C6.1927 13.4996 5.80566 13.4709 5.41862 13.4709Z" fill="black"/>
<path d="M10.3606 6.65423C10.6286 6.65423 10.8965 6.65423 11.1645 6.65423C11.492 6.65423 11.8195 6.74051 11.8493 6.25157C11.8493 6.05025 12.1172 6.02148 12.3256 6.02148C12.5042 6.02148 12.7424 6.10777 12.7127 6.28033C12.7127 6.68299 12.9508 6.68299 13.2486 6.65423C13.6356 6.62547 13.844 6.76927 13.844 7.17193C13.844 7.60334 13.576 7.68963 13.2188 7.66086C12.9508 7.66086 12.7127 7.6321 12.7127 8.006C12.7127 8.23609 12.4447 8.29361 12.2363 8.29361C11.9981 8.29361 11.8195 8.20732 11.8195 7.97724C11.8195 7.66086 11.6408 7.6321 11.4027 7.66086C10.7179 7.66086 10.0331 7.66086 9.3186 7.66086C8.96134 7.66086 8.75293 7.51706 8.75293 7.14317C8.75293 6.76927 8.96134 6.62547 9.3186 6.65423C9.67587 6.68299 10.0331 6.65423 10.3606 6.65423Z" fill="black"/>
<path d="M12.2959 10.048C11.9981 10.048 11.7302 10.048 11.4325 10.048C11.1347 10.048 10.837 9.9905 10.837 10.4507C10.837 10.6232 10.6286 10.7095 10.4202 10.7095C10.2118 10.7095 9.97362 10.652 9.97362 10.4507C9.94385 9.9905 9.64612 10.0193 9.31863 10.0193C8.96136 10.048 8.8125 9.84669 8.8125 9.50156C8.8125 9.12767 9.05068 9.04139 9.37817 9.04139C9.6759 9.04139 9.91408 9.01262 9.91408 8.63873C9.91408 8.40864 10.1523 8.35112 10.3607 8.37988C10.5691 8.37988 10.7775 8.4374 10.7775 8.66749C10.7775 9.04139 11.0454 9.04139 11.3431 9.04139C11.9981 9.04139 12.6531 9.04139 13.3081 9.04139C13.6654 9.04139 13.844 9.18519 13.844 9.53032C13.844 9.90422 13.6654 10.0193 13.3081 10.0193C12.9806 10.0193 12.6234 10.048 12.2959 10.048Z" fill="black"/>
</svg>
