<?xml version="1.0" encoding="UTF-8" standalone="no"?>
<svg
   width="25"
   height="23"
   viewBox="0 0 25 23"
   fill="none"
   version="1.1"
   id="svg2"
   sodipodi:docname="Group.svg"
   inkscape:version="1.4 (e7c3feb1, 2024-10-09)"
   xmlns:inkscape="http://www.inkscape.org/namespaces/inkscape"
   xmlns:sodipodi="http://sodipodi.sourceforge.net/DTD/sodipodi-0.dtd"
   xmlns="http://www.w3.org/2000/svg"
   xmlns:svg="http://www.w3.org/2000/svg">
  <defs
     id="defs2" />
  <sodipodi:namedview
     id="namedview2"
     pagecolor="#ffffff"
     bordercolor="#000000"
     borderopacity="0.25"
     inkscape:showpageshadow="2"
     inkscape:pageopacity="0.0"
     inkscape:pagecheckerboard="0"
     inkscape:deskcolor="#d1d1d1"
     inkscape:zoom="17.434783"
     inkscape:cx="12.475062"
     inkscape:cy="11.471322"
     inkscape:window-width="1200"
     inkscape:window-height="951"
     inkscape:window-x="0"
     inkscape:window-y="25"
     inkscape:window-maximized="0"
     inkscape:current-layer="svg2" />
  <path
     d="m 18.135,0 c 2.2669,1.90177 4.3891,3.6735 6.5113,5.44523 0.1768,0.14629 0.434,0.27633 0.0964,0.55265 -2.1543,1.80424 -4.3087,3.60848 -6.6077,5.55902 0,-1.4304 -0.0322,-2.69824 0.0161,-3.94983 C 18.1672,7.03816 17.9903,6.87562 17.4276,6.87562 13.971,6.89187 10.5144,6.85936 7.05783,6.89187 4.19609,6.92438 2.31506,8.87491 2.36329,11.7845 2.37937,12.3859 1.96136,12.5647 1.63982,12.841 0.33757,13.93 0.289339,13.9138 0.0642583,12.2233 -0.418057,8.67986 2.28291,4.71378 6.68805,4.64876 10.1125,4.6 13.5369,4.63251 16.9774,4.63251 c 1.1576,0 1.1576,0 1.1737,-1.21908 C 18.135,2.34064 18.135,1.26784 18.135,0 Z"
     fill="white"
     id="path1"
     style="fill:#ffffff;fill-opacity:1"
     sodipodi:nodetypes="cccccccccccscc" />
  <path
     d="M 6.86474,23.0003 C 5.14448,21.5537 3.56892,20.237 1.99336,18.9204 1.49496,18.4978 1.02873,18.059 0.514256,17.6851 0.112326,17.3763 -0.0162909,17.1975 0.466024,16.8074 2.55606,15.0844 4.63001,13.3289 6.86474,11.4434 v 3.1859 c 0,1.5604 0,1.5441 1.55948,1.5441 3.16718,0 6.31838,-0.065 9.48558,0.0163 2.8617,0.0813 5.0964,-2.4544 4.7266,-4.9251 -0.1125,-0.7477 0.5467,-0.9265 0.9486,-1.26784 1.0932,-0.9265 1.1093,-0.91024 1.3344,0.55264 0.627,3.9986 -2.5241,7.7859 -6.5434,7.8021 C 14.839,18.384 11.302,18.384 7.76506,18.3353 7.00943,18.319 6.81651,18.5628 6.86474,19.278 c 0.04823,1.1866 0,2.3732 0,3.7223 z"
     fill="white"
     id="path2"
     style="fill:#ffffff;fill-opacity:1"
     sodipodi:nodetypes="cccccsscccccccc" />
</svg>
