<svg width="44" height="38" viewBox="0 0 44 38" fill="none" xmlns="http://www.w3.org/2000/svg">
<path d="M21.9 38C16.5 38 11.2 38 5.8 38C2.3 38 0 35.7 0 32.2C0 25.3 0 18.5 0 11.6C0 8.20001 2.3 5.90001 5.7 5.90001C7.2 5.90001 8.7 5.80001 10.3 5.90001C11.3 6.00001 11.9 5.70001 12.1 4.60001C12.2 4.20001 12.3 3.80001 12.5 3.40001C13.4 1.20001 15.1 0.100011 17.4 1.08518e-05C20.4 -0.0999891 23.5 1.08518e-05 26.5 1.08518e-05C28.9 1.08518e-05 30.8 1.50001 31.6 3.90001C32.3 5.90001 32.3 5.90001 34.4 5.90001C36.1 5.90001 37.8 5.70001 39.5 6.00001C42.1 6.50001 43.9 8.60001 43.9 11.1C43.9 18.3 43.9 25.5 43.9 32.7C43.9 35.7 41.5 38 38.4 38C32.8 38 27.3 38 21.9 38ZM21.9 35.1C27.3 35.1 32.7 35.1 38.1 35.1C39.9 35.1 40.9 34.1 40.9 32.3C40.9 25.4 40.9 18.5 40.9 11.7C40.9 9.80001 39.9 8.80001 38 8.80001C35.8 8.80001 33.6 8.80001 31.4 8.80001C30.5 8.80001 30 8.40001 29.7 7.60001C29.4 6.70001 29.1 5.70001 28.7 4.80001C28.3 3.60001 27.5 3.00001 26.2 3.00001C23.3 3.00001 20.5 3.00001 17.6 3.00001C16.3 3.00001 15.5 3.60001 15 4.80001C14.7 5.70001 14.4 6.60001 14.1 7.50001C13.8 8.40001 13.3 8.80001 12.3 8.70001C10.1 8.70001 7.9 8.70001 5.8 8.70001C3.8 8.70001 2.9 9.70001 2.9 11.6C2.9 18.4 2.9 25.2 2.9 32C2.9 34 3.8 34.9 5.9 34.9C11.2 35.1 16.5 35.1 21.9 35.1Z" fill="black"/>
<path d="M11 21.2C11 15.2 15.8 10.3 21.8 10.3C27.9 10.3 32.8 15.2 32.8 21.4C32.8 27.3 27.8 32.2001 21.9 32.2001C15.8 32.1 11 27.2001 11 21.2ZM29.9 21.2C29.9 16.7 26.4 13.2 21.9 13.1C17.5 13 13.9 16.7 13.9 21.1C13.9 25.5 17.4 29.2001 21.9 29.2001C26.2 29.3001 29.9 25.6 29.9 21.2Z" fill="black"/>
<path d="M37.9 13.1C37.9 13.9 37.3 14.5 36.5 14.6C35.6 14.6 35.1 14.1 35 13.2C35 12.4 35.6 11.7 36.4 11.7C37.2 11.7 37.9 12.3 37.9 13.1Z" fill="black"/>
</svg>
