<svg width="20" height="22" viewBox="0 0 20 22" fill="none" xmlns="http://www.w3.org/2000/svg">
<path d="M0.0150038 12.4738C0.0150038 9.81492 0.0300075 7.15608 0 4.49724C0 3.85912 0.180045 3.38812 0.630158 2.96271C1.42536 2.20304 2.20555 1.39779 2.97074 0.607735C3.36084 0.18232 3.81095 0 4.36609 0C7.66692 0.0151934 10.9677 0 14.2686 0.0151934C15.3638 0.0151934 15.7689 0.425414 15.7689 1.51934C15.7689 3.52486 15.7689 5.51519 15.7689 7.52072C15.7689 7.76381 15.889 8.17403 15.4839 8.17403C15.0788 8.17403 15.1838 7.77901 15.1838 7.52072C15.1838 5.54558 15.1538 3.57044 15.1988 1.5953C15.2138 0.896409 15.0038 0.592541 14.2686 0.592541C11.0278 0.622928 7.80195 0.607735 4.57614 0.592541C4.09602 0.592541 3.90098 0.714088 3.93098 1.21547C3.97599 1.71685 3.94599 2.23343 3.93098 2.73481C3.91598 3.60083 3.55589 3.98066 2.70068 4.02624C2.22056 4.05663 1.74044 4.07182 1.27532 4.02624C0.690173 3.96547 0.570143 4.19337 0.570143 4.75552C0.615154 8.62983 0.60015 12.5041 0.60015 16.3785C0.60015 17.7762 0.615154 19.1588 0.60015 20.5566C0.585146 21.1796 0.84021 21.4075 1.44036 21.4075C5.74644 21.3923 10.0375 21.3923 14.3436 21.4075C14.7187 21.4075 15.0488 21.3619 15.1688 20.9365C15.2438 20.7086 15.3788 20.5718 15.6189 20.7086C15.844 20.8301 15.7689 21.0428 15.6939 21.2403C15.4389 21.8481 14.9437 22 14.3586 22C12.4831 22 10.6077 22 8.73218 22C6.33158 22 3.93098 22 1.53038 22C0.390098 22 0.0150038 21.6202 0.0150038 20.4503C0.0150038 17.7914 0.0150038 15.1326 0.0150038 12.4738ZM3.33083 1.29144C2.62566 2.03591 1.95049 2.73481 1.30533 3.40331C3.24081 3.72238 3.42086 3.57044 3.37584 1.56492C3.36084 1.45856 3.34584 1.3674 3.33083 1.29144Z" fill="black"/>
<path d="M19.9852 12.2003C20.0902 14.6312 19.5051 16.8494 17.6746 18.5207C15.6341 20.3895 15.349 20.3591 13.3085 18.5207C11.7781 17.1381 11.103 15.3149 11.013 13.2638C10.9829 12.4738 10.998 11.6989 10.9829 10.9088C10.9679 10.5138 11.118 10.3011 11.5381 10.2859C12.8284 10.2099 14.0437 9.8301 15.109 9.08563C15.4541 8.85773 15.7091 8.96408 15.9942 9.1616C16.9694 9.81491 18.0497 10.1947 19.22 10.2555C19.8502 10.2859 20.0602 10.5442 19.9852 11.1519C19.9552 11.4862 19.9852 11.8508 19.9852 12.2003ZM19.37 12.5497C19.37 12.4282 19.37 12.2914 19.37 12.1699C19.385 10.9696 19.37 10.9696 18.2148 10.6961C17.9897 10.6505 17.7796 10.5746 17.5696 10.529C16.8044 10.3467 16.1592 9.63259 15.4691 9.64778C14.7789 9.67817 14.1037 10.2859 13.3685 10.5594C12.7834 10.7873 11.8982 10.453 11.6281 11.076C11.388 11.6533 11.5831 12.413 11.5831 13.0967C11.5831 13.2182 11.5831 13.355 11.5981 13.4765C11.7781 15.8467 12.8434 17.6851 14.8239 18.9917C15.319 19.326 15.6941 19.2956 16.1742 18.9765C18.4548 17.4572 19.4751 15.2997 19.37 12.5497Z" fill="black"/>
<path d="M7.89214 6.18379C6.34675 6.18379 4.80137 6.18379 3.25598 6.18379C3.00092 6.18379 2.61082 6.29014 2.59582 5.89512C2.56581 5.45451 2.97091 5.59125 3.21097 5.59125C6.33175 5.57606 9.43753 5.57606 12.5583 5.59125C12.7984 5.59125 13.2035 5.45451 13.1885 5.87992C13.1735 6.27495 12.7834 6.1686 12.5283 6.1686C10.9829 6.19898 9.43753 6.18379 7.89214 6.18379Z" fill="black"/>
<path d="M7.81687 8.73594C6.27149 8.73594 4.7111 8.73594 3.16571 8.73594C2.94066 8.73594 2.59557 8.8271 2.58057 8.44726C2.58057 8.05224 2.94066 8.17378 3.15071 8.17378C6.3015 8.15859 9.45228 8.15859 12.6031 8.17378C12.8281 8.17378 13.1882 8.05224 13.1882 8.43207C13.1882 8.81191 12.8431 8.72075 12.6181 8.72075C11.0127 8.73594 9.42228 8.73594 7.81687 8.73594Z" fill="black"/>
<path d="M7.44179 18.9762C6.01643 18.9762 4.59107 18.9762 3.16572 18.9762C2.94066 18.9762 2.59558 19.0826 2.58057 18.7027C2.56557 18.3381 2.89565 18.3837 3.13571 18.3837C6.01643 18.3837 8.88215 18.3837 11.7629 18.3837C12.0029 18.3837 12.333 18.3533 12.303 18.7179C12.273 19.0977 11.9279 18.9762 11.7029 18.9762C10.2925 18.9914 8.86714 18.9762 7.44179 18.9762Z" fill="black"/>
<path d="M6.61666 16.4084C5.44636 16.4084 4.27607 16.4084 3.10578 16.4084C2.89573 16.4084 2.59565 16.4996 2.58065 16.1501C2.56564 15.8311 2.85071 15.8311 3.07577 15.8311C5.49137 15.8311 7.90698 15.8311 10.3376 15.8311C10.5626 15.8311 10.8327 15.8311 10.8177 16.1653C10.8027 16.5148 10.4876 16.4084 10.2926 16.4084C9.06227 16.4084 7.83196 16.4084 6.61666 16.4084Z" fill="black"/>
<path d="M6.46646 13.8414C5.34118 13.8414 4.2159 13.8414 3.09061 13.8414C2.89557 13.8414 2.58049 13.9478 2.56548 13.5832C2.55048 13.2337 2.85055 13.2793 3.06061 13.2793C5.31117 13.2793 7.54673 13.2793 9.79729 13.2793C10.0223 13.2793 10.3224 13.2793 10.2924 13.5832C10.2624 13.887 9.96233 13.8263 9.75228 13.8263C8.67201 13.8414 7.57674 13.8414 6.46646 13.8414Z" fill="black"/>
<path d="M9.55757 3.02318C10.6078 3.02318 11.6581 3.02318 12.7084 3.02318C12.9334 3.02318 13.2185 2.99279 13.2035 3.32705C13.1885 3.63091 12.9184 3.63091 12.6934 3.63091C10.6228 3.63091 8.55232 3.63091 6.4818 3.63091C6.22674 3.63091 5.92666 3.63092 5.95667 3.28147C5.98668 2.9776 6.27175 3.03837 6.49681 3.03837C7.50206 3.02318 8.53732 3.02318 9.55757 3.02318Z" fill="black"/>
<path d="M6.3767 11.2731C5.28143 11.2731 4.18615 11.2731 3.09088 11.2731C2.88083 11.2731 2.58075 11.349 2.59576 10.9996C2.61076 10.6653 2.91084 10.7413 3.12089 10.7413C5.31144 10.7261 7.51699 10.7413 9.70753 10.7413C9.91759 10.7413 10.2327 10.6653 10.2477 10.9844C10.2627 11.3794 9.91759 11.2731 9.69253 11.2731C8.56725 11.2883 7.47198 11.2731 6.3767 11.2731Z" fill="black"/>
<path d="M17.7046 12.99C17.5996 13.2027 17.5695 13.3091 17.5095 13.3699C16.6993 14.1903 15.8891 15.0107 15.0789 15.8312C14.8839 16.0287 14.6888 16.0135 14.4938 15.816C14.1637 15.4817 13.8186 15.1475 13.4885 14.798C13.3535 14.6613 13.2785 14.4942 13.4135 14.327C13.5635 14.1599 13.7286 14.2359 13.8636 14.3726C13.8786 14.3878 13.8936 14.403 13.9236 14.4182C14.2537 14.6461 14.4488 15.2538 14.8539 15.1475C15.214 15.0563 15.469 14.6005 15.7691 14.2967C16.1892 13.8712 16.6243 13.4458 17.0444 13.0204C17.1494 12.9141 17.2695 12.8229 17.4345 12.8685C17.5395 12.9141 17.6296 12.9596 17.7046 12.99Z" fill="black"/>
</svg>
