<svg width="14" height="17" viewBox="0 0 14 17" fill="none" xmlns="http://www.w3.org/2000/svg">
<g clip-path="url(#clip0_20169_352)">
<path d="M6.59355 9.02939L7.02258 8.56543L7.45161 9.02939L8.50161 10.1596L10.2742 12.0749L12.6339 14.6326C13.1419 13.8356 13.4016 12.9433 13.4016 11.9678C13.4016 10.8139 13.1081 9.89783 12.5323 9.21974C11.9565 8.54164 11.2677 8.05388 10.4774 7.74458C9.6871 7.43527 8.69355 7.14976 7.48548 6.87614C6.4129 6.63821 5.64516 6.41218 5.15968 6.18614C4.67419 5.96011 4.4371 5.62701 4.4371 5.18684C4.4371 4.74668 4.64032 4.37789 5.04677 4.10427C5.45323 3.83065 6.09677 3.68789 6.98871 3.68789C8.4 3.68789 9.86774 4.11617 11.3694 4.97271L12.7468 1.47516C11.979 0.9993 11.0871 0.642407 10.0823 0.392582C9.06613 0.118964 8.03871 0 7 0C5.47581 0 4.2 0.237929 3.15 0.713786C2.1 1.18964 1.32097 1.83205 0.790323 2.6529C0.259677 3.47376 0 4.38978 0 5.40098C0 6.55493 0.282258 7.48286 0.858064 8.16095C1.43387 8.83905 2.11129 9.3387 2.9129 9.64801C3.57903 9.90973 4.39194 10.1477 5.32903 10.3856L5.54355 10.1596L6.59355 9.02939Z" fill="#F15B25"/>
<path d="M12.3627 15.2274L9.83363 12.5031L8.07234 10.5997L7.02234 9.45764L5.97234 10.5997L3.44331 13.324L0.0900832 16.9524L0.0449219 17H0.0900832H3.4546L6.8417 13.324L7.02234 13.1336L7.1917 13.324L10.3078 16.6788L10.5901 17H13.9998L12.3627 15.2274Z" fill="#F15B25"/>
<path d="M6.8417 14.8467H5.93848V15.7985H6.8417V14.8467Z" fill="#F15B25"/>
<path d="M7.97061 14.8467H7.06738V15.7985H7.97061V14.8467Z" fill="#F15B25"/>
<path d="M6.8417 16.0483H5.93848V17H6.8417V16.0483Z" fill="#F15B25"/>
<path d="M7.97061 16.0483H7.06738V17H7.97061V16.0483Z" fill="#F15B25"/>
</g>
<defs>
<clipPath id="clip0_20169_352">
<rect width="14" height="17" fill="white"/>
</clipPath>
</defs>
</svg>
