<svg width="13" height="12" viewBox="0 0 13 12" fill="none" xmlns="http://www.w3.org/2000/svg">
<path d="M6.16001 8.64938C6.16001 8.41409 6.16001 8.17879 6.16001 7.9435C6.16001 7.37879 6.16001 7.37879 6.72083 7.52938C9.07444 8.14114 10.8672 9.5435 12.1635 11.6141C12.2923 11.8117 12.3842 12.0564 12.6784 11.9906C13.0002 11.9153 12.9726 11.6423 12.9818 11.3882C13.037 10.1741 12.9634 8.97879 12.5589 7.82114C11.7039 5.41173 9.92946 4.09409 7.61263 3.41644C7.23568 3.3035 6.84035 3.20938 6.45421 3.15291C6.20598 3.12467 6.16001 3.01173 6.16001 2.79526C6.16921 2.07056 6.16001 1.35526 6.16001 0.630556C6.16001 0.395262 6.18759 0.141144 5.92097 0.0282033C5.68194 -0.0659143 5.51645 0.0940857 5.35096 0.235262C3.67769 1.7035 1.99523 3.17173 0.321964 4.63056C-0.110144 5.00703 -0.110144 5.12938 0.331158 5.50585C2.01362 6.9835 3.70527 8.45173 5.39693 9.92938C5.55322 10.0706 5.70952 10.2023 5.93017 10.0988C6.15082 10.0047 6.16921 9.79762 6.16921 9.58114C6.16001 9.27997 6.16001 8.96938 6.16001 8.64938Z" fill="black"/>
</svg>
