<svg width="8" height="6" viewBox="0 0 8 6" fill="none" xmlns="http://www.w3.org/2000/svg">
<path d="M8 4.39265C7.92053 4.59039 7.76159 4.70338 7.62914 4.84463C7.41722 5.07061 7.17881 5.07061 6.9404 4.81638C6.4106 4.25141 5.90729 3.71468 5.37748 3.14971C4.95364 2.69773 4.5298 2.274 4.13245 1.79378C4.02649 1.68078 3.97351 1.68078 3.86755 1.79378C2.9404 2.78248 2.01325 3.77118 1.08609 4.75988C0.794702 5.07061 0.582782 5.07061 0.317881 4.75988C0.211921 4.64689 0.0794702 4.50564 5.6505e-08 4.3644C6.39137e-08 4.27965 6.88529e-08 4.22316 7.62616e-08 4.13841C0.05298 3.99717 0.15894 3.88417 0.264901 3.77118C1.37748 2.61299 2.49007 1.3983 3.60265 0.211857C3.86755 -0.0706285 4.10596 -0.0706285 4.37086 0.211857C5.50993 1.42655 6.64901 2.64124 7.78808 3.85593C7.86755 3.94067 7.94702 4.05367 8 4.16666C8 4.22316 8 4.3079 8 4.39265Z" fill="black"/>
</svg>
