<svg width="47" height="44" viewBox="0 0 47 44" fill="none" xmlns="http://www.w3.org/2000/svg">
<path d="M0 22.9C0.4 21.1 0.9 19.2 2.2 17.8C3.6 16.4 4.2 15 4.3 13C4.6 9.19997 8.1 6.59997 11.9 6.79997C12.7 6.79997 13.1 6.69997 13.6 5.99997C17 1.29997 21.7 -0.800034 27.4 0.399966C33 1.49997 36.6 5.09997 38.1 10.6C38.2 11 38.3 11.4 38.8 11.6C43.5 13.3 46.1 16.6 46.9 21.4C46.9 21.5 47 21.6 47 21.7C47 22.5 47 23.4 47 24.2C46.7 25.5 46.5 26.8 45.9 28C43.7 32.4 40.2 34.9 35.1 34.9C33.1 34.9 31.1 34.9 29 34.9C28 34.9 27.5 34.4 27.5 33.6C27.5 32.8 28 32.3 29.1 32.3C31.1 32.3 33.1 32.3 35.2 32.3C39.7 32.3 43.7 28.9 44.3 24.5C45 19.7 42.2 15.1 37.8 14C36.4 13.6 35.9 13 35.7 11.7C34.9 6.89997 31.2 3.49997 26.3 2.69997C22 1.99997 17.3 4.39997 15.1 8.49997C14.4 9.69997 14.1 9.79997 12.8 9.49997C9.2 8.59997 6 11.6 6.9 15.3C7.2 16.4 6.9 17 6 17.7C3.2 19.7 2.1 22.4 2.8 25.7C3.5 29.1 5.6 31.4 9.1 32.2C9.5 32.3 10 32.3 10.5 32.3C13 32.3 15.5 32.3 18 32.3C18.9 32.3 19.4 32.7 19.5 33.6C19.5 34.5 18.9 34.9 18.1 34.9C15.3 34.9 12.6 35 9.8 34.9C5.2 34.7 1.1 30.9 0.2 26.1C0.2 25.9 0.2 25.6 0 25.4C0 24.6 0 23.7 0 22.9Z" fill="black"/>
<path d="M22 20.7999C20.6 22.1999 19.2 23.6999 17.8 25.0999C17.2 25.6999 16.6 25.8999 15.8 25.3999C15.2 24.8999 15.1 24.0999 15.8 23.4999C18.1 21.1999 20.4 18.8999 22.7 16.5999C23.3 15.9999 24 16.0999 24.6 16.5999C26.9 18.8999 29.2 21.0999 31.4 23.3999C32 23.9999 32.1 24.6999 31.4 25.2999C30.8 25.7999 30.1 25.6999 29.5 25.1999C28.1 23.6999 26.6 22.2999 25.1 20.7999C24.7 21.1999 24.9 21.5999 24.9 21.9999C24.9 28.4999 24.9 34.8999 24.9 41.3999C24.9 41.7999 24.9 42.1999 24.8 42.5999C24.7 43.1999 24.2 43.4999 23.6 43.4999C22.9 43.4999 22.5 43.1999 22.3 42.4999C22.2 42.0999 22.2 41.6999 22.2 41.3999C22.2 34.9999 22.2 28.5999 22.2 22.0999C22.2 21.6999 22.2 21.2999 22.2 20.9999C22.2 20.8999 22.1 20.7999 22 20.7999Z" fill="black"/>
</svg>
