<svg width="13" height="15" viewBox="0 0 13 15" fill="none" xmlns="http://www.w3.org/2000/svg">
<path d="M7.59808 10.729C4.61521 10.7437 2.19626 8.35134 2.18142 5.35721C2.15174 2.42179 4.63005 -0.0146111 7.59808 6.59676e-05C10.5958 0.0147431 12.9999 2.42179 12.9999 5.38656C13.0147 8.30731 10.581 10.7144 7.59808 10.729ZM11.9017 5.37189C11.8869 2.97952 9.95767 1.08617 7.53872 1.10085C5.17913 1.10085 3.26475 3.03823 3.26475 5.41592C3.26475 7.7349 5.23849 9.6576 7.58324 9.64292C9.97251 9.62825 11.9166 7.72022 11.9017 5.37189Z" fill="#67666B"/>
<path d="M6.47045 14.9998C5.80264 14.9998 5.14967 14.9998 4.48187 14.9998C4.03666 14.9998 3.81406 14.7943 3.81406 14.4568C3.81406 14.1192 4.0515 13.9284 4.49671 13.9284C4.88255 13.9284 5.26839 13.9137 5.66908 13.9284C5.89168 13.9284 5.99556 13.855 5.96588 13.6349C5.96588 13.6202 5.96588 13.6055 5.96588 13.5908C6.0104 12.7542 6.0104 12.7542 5.20903 12.49C-0.0295505 10.8315 -1.73617 4.2415 2.04808 0.322718C2.241 0.117238 2.44876 -0.0588872 2.7604 0.0438525C2.98301 0.117238 3.11657 0.278686 3.13141 0.528197C3.14625 0.792385 2.96817 0.939156 2.81976 1.11528C1.57319 2.46557 0.979582 4.0507 1.12798 5.85599C1.33575 8.43916 2.6862 10.3178 5.10515 11.2865C7.55378 12.2699 9.82433 11.8149 11.8426 10.127C11.8871 10.083 11.9316 10.0536 11.9613 10.0096C12.3026 9.70139 12.5846 9.67203 12.8369 9.92154C13.0743 10.1564 13.0447 10.494 12.733 10.7875C11.6497 11.8149 10.3734 12.4607 8.90424 12.7395C8.41451 12.8276 7.90995 12.8863 7.40538 12.857C7.10858 12.8423 7.03438 12.945 7.03438 13.2092C7.04922 14.1045 6.97502 13.9137 7.71702 13.9284C7.99899 13.9284 8.29579 13.9284 8.57776 13.9284C8.93392 13.9284 9.17136 14.0752 9.1862 14.4421C9.20104 14.7943 8.97844 14.9851 8.57776 14.9998C7.88027 15.0145 7.16794 14.9998 6.47045 14.9998Z" fill="#67666B"/>
</svg>
