<svg width="16" height="15" viewBox="0 0 16 15" fill="none" xmlns="http://www.w3.org/2000/svg">
<path d="M7.95092 15C5.72002 15 3.48912 15 1.25823 15C0.401562 15 0 14.5912 0 13.728C0 10.43 0 7.12296 0 3.82495C0 2.96184 0.410485 2.54391 1.25823 2.54391C2.17736 2.54391 3.10541 2.53483 4.02454 2.553C4.32794 2.56208 4.40825 2.46214 4.39041 2.17141C4.37256 1.87159 4.36364 1.57177 4.45287 1.27196C4.69381 0.499697 5.30954 0.0090854 6.10374 0C7.36196 0 8.62911 0 9.89626 0.0090854C10.8689 0.0181708 11.6007 0.772259 11.6096 1.77165C11.6185 2.553 11.6185 2.553 12.3681 2.553C13.1891 2.553 14.0011 2.553 14.8221 2.553C15.5449 2.553 15.9911 2.99818 15.9911 3.74319C15.9911 7.10478 15.9911 10.4664 15.9911 13.828C15.9911 14.573 15.5538 15 14.8221 15.0091C12.5287 15 10.2443 15 7.95092 15ZM7.99554 14.0642C10.1818 14.0642 12.3681 14.0551 14.5544 14.0733C14.9292 14.0733 15.0809 13.9733 15.0719 13.5645C15.0541 11.9291 15.0541 10.2938 15.0719 8.65839C15.0719 8.25863 14.9916 8.20412 14.6347 8.37674C12.5733 9.39431 10.3781 9.88492 8.0937 9.90309C5.76464 9.92126 3.52482 9.42156 1.40993 8.41308C0.936977 8.18595 0.936977 8.19503 0.936977 8.74016C0.936977 10.3301 0.945901 11.92 0.928053 13.51C0.91913 13.9461 1.05298 14.0824 1.48132 14.0824C3.64975 14.0551 5.81818 14.0642 7.99554 14.0642ZM7.98661 3.50697C5.80033 3.50697 3.61405 3.51605 1.42777 3.49788C1.03514 3.49788 0.910206 3.62508 0.91913 4.02483C0.945901 4.88795 0.945901 5.75106 0.91913 6.61417C0.901283 6.99576 1.05298 7.16838 1.37423 7.33192C2.97156 8.12235 4.64919 8.6493 6.42499 8.8401C9.36085 9.15809 12.1272 8.61296 14.7507 7.25015C15.0006 7.12296 15.0719 6.95033 15.0719 6.67777C15.0541 5.79649 15.0452 4.92429 15.0719 4.043C15.0898 3.58873 14.9202 3.48879 14.5098 3.48879C12.3324 3.51605 10.164 3.50697 7.98661 3.50697ZM7.99554 2.553C8.77189 2.553 9.53932 2.553 10.3157 2.553C10.4495 2.553 10.6102 2.62568 10.6637 2.38946C10.8689 1.50818 10.4584 0.953967 9.58394 0.944882C8.57557 0.944882 7.56721 0.944882 6.54992 0.944882C5.55047 0.944882 5.30954 1.19927 5.32738 2.20775C5.32738 2.48031 5.4077 2.57117 5.68433 2.56208C6.45176 2.54391 7.22811 2.553 7.99554 2.553Z" fill="#67666B"/>
<path d="M7.98677 7.35036C7.60305 7.35036 7.21934 7.35036 6.83562 7.35036C6.50545 7.35036 6.27344 7.205 6.27344 6.85067C6.28236 6.50542 6.5233 6.36914 6.84455 6.36914C7.61198 6.36914 8.37941 6.36914 9.15576 6.36914C9.48593 6.36914 9.71794 6.52359 9.71794 6.86884C9.71794 7.21408 9.46808 7.35036 9.13791 7.35036C8.76312 7.35036 8.37048 7.35036 7.98677 7.35036Z" fill="#67666B"/>
</svg>
